<?xml version="1.0" encoding="UTF-8" standalone="no"?>
<!-- Creator: CorelDRAW -->

<svg
   xmlns:dc="http://purl.org/dc/elements/1.1/"
   xmlns:cc="http://creativecommons.org/ns#"
   xmlns:rdf="http://www.w3.org/1999/02/22-rdf-syntax-ns#"
   xmlns:svg="http://www.w3.org/2000/svg"
   xmlns="http://www.w3.org/2000/svg"
   xmlns:sodipodi="http://sodipodi.sourceforge.net/DTD/sodipodi-0.dtd"
   xmlns:inkscape="http://www.inkscape.org/namespaces/inkscape"
   xml:space="preserve"
   width="91.6712mm"
   height="91.6161mm"
   style="shape-rendering:geometricPrecision; text-rendering:geometricPrecision; image-rendering:optimizeQuality; fill-rule:evenodd; clip-rule:evenodd"
   viewBox="0 0 87.752 87.6993"
   version="1.1"
   id="svg36"
   sodipodi:docname="logo-white.svg"
   inkscape:version="0.92.2 2405546, 2018-03-11"><metadata
   id="metadata40"><rdf:RDF><cc:Work
       rdf:about=""><dc:format>image/svg+xml</dc:format><dc:type
         rdf:resource="http://purl.org/dc/dcmitype/StillImage" /><dc:title></dc:title></cc:Work></rdf:RDF></metadata><sodipodi:namedview
   pagecolor="#ffffff"
   bordercolor="#666666"
   borderopacity="1"
   objecttolerance="10"
   gridtolerance="10"
   guidetolerance="10"
   inkscape:pageopacity="0"
   inkscape:pageshadow="2"
   inkscape:window-width="1366"
   inkscape:window-height="697"
   id="namedview38"
   showgrid="false"
   inkscape:zoom="0.48193415"
   inkscape:cx="319.48326"
   inkscape:cy="-64.795955"
   inkscape:window-x="0"
   inkscape:window-y="29"
   inkscape:window-maximized="1"
   inkscape:current-layer="svg36" />
 <defs
   id="defs4">
  <style
   type="text/css"
   id="style2">
   <![CDATA[
    .str2 {stroke:white;stroke-width:0.0729423}
    .str0 {stroke:#1B939B;stroke-width:0.0729423}
    .str6 {stroke:white;stroke-width:0.172305}
    .str3 {stroke:white;stroke-width:0.675338}
    .str1 {stroke:white;stroke-width:0.675338;stroke-linejoin:round}
    .str4 {stroke:white;stroke-width:2.70154}
    .str5 {stroke:white;stroke-width:0.675338;stroke-dasharray:3.376691 3.376691}
    .fil1 {fill:none}
    .fil2 {fill:white}
    .fil0 {fill:#1B939B}
    .fil3 {fill:white;fill-rule:nonzero}
   ]]>
  </style>
 
  
  
  
  
  
  
  
  
  
  
  
  
  
  
  
 </defs>
 <polygon
   style="fill:none;stroke:#ffffff;stroke-width:0.67533797;stroke-linejoin:round"
   id="polygon9"
   points="24.4004,43.5775 29.624,41.6225 29.624,40.1454 22.9925,40.1454 22.5108,39.8261 21.5463,40.9439 20.5818,40.4249 19.6173,40.9439 18.6527,39.8261 18.171,40.1454 11.5395,40.1454 11.5395,41.6225 16.7631,43.5775 16.7631,50.3254 20.5818,50.3254 24.4004,50.3254 "
   class="fil1 str1" /><path
   style="fill:#ffffff;stroke:#ffffff;stroke-width:0.0729423"
   inkscape:connector-curvature="0"
   id="path11"
   d="m 20.5818,41.9888 c 0.142917,0 0.25884,0.115923 0.25884,0.25884 0,0.143013 -0.115923,0.25884 -0.25884,0.25884 -0.142917,0 -0.25884,-0.115827 -0.25884,-0.25884 0,-0.142917 0.115923,-0.25884 0.25884,-0.25884 z m 0,6.21168 c 0.142917,0 0.25884,0.115827 0.25884,0.25884 0,0.142917 -0.115923,0.258744 -0.25884,0.258744 -0.142917,0 -0.25884,-0.115827 -0.25884,-0.258744 0,-0.143013 0.115923,-0.25884 0.25884,-0.25884 z m 0,-1.55294 c 0.142917,0 0.25884,0.115923 0.25884,0.25884 0,0.142917 -0.115923,0.25884 -0.25884,0.25884 -0.142917,0 -0.25884,-0.115923 -0.25884,-0.25884 0,-0.142917 0.115923,-0.25884 0.25884,-0.25884 z m 0,-1.55294 c 0.142917,0 0.25884,0.115923 0.25884,0.25884 0,0.143013 -0.115923,0.25884 -0.25884,0.25884 -0.142917,0 -0.25884,-0.115827 -0.25884,-0.25884 0,-0.142917 0.115923,-0.25884 0.25884,-0.25884 z m 0,-1.55285 c 0.142917,0 0.25884,0.115827 0.25884,0.25884 0,0.142917 -0.115923,0.25884 -0.25884,0.25884 -0.142917,0 -0.25884,-0.115923 -0.25884,-0.25884 0,-0.143013 0.115923,-0.25884 0.25884,-0.25884 z"
   class="fil2 str2" /><path
   style="fill:none;stroke:#ffffff;stroke-width:0.67533797"
   inkscape:connector-curvature="0"
   id="path13"
   d="m 23.7644,36.6231 c 0,1.73157 -1.40428,3.13585 -3.13585,3.13585 -1.73166,0 -3.13585,-1.40428 -3.13585,-3.13585"
   class="fil1 str3" /><path
   style="fill:none;stroke:#ffffff;stroke-width:0.67533797"
   inkscape:connector-curvature="0"
   id="path15"
   d="m 17.4927,35.3887 c 0,-1.73157 1.40419,-3.13585 3.13585,-3.13585 1.73157,0 3.13585,1.40428 3.13585,3.13585"
   class="fil1 str3" /><path
   style="fill:none;stroke:#ffffff;stroke-width:0.67533797"
   inkscape:connector-curvature="0"
   id="path17"
   d="m 24.5707,35.0261 c 0.495854,0.100415 0.787815,0.260659 0.783124,0.390078 -0.01742,0.472689 -3.11977,0.561043 -3.5601,0.576742 -1.45865,0.05198 -2.9712,0.03915 -4.52003,-0.01694"
   class="fil1 str3" /><path
   style="fill:none;stroke:#ffffff;stroke-width:0.67533797"
   inkscape:connector-curvature="0"
   id="path19"
   d="m 22.1924,37.6193 c -0.254436,0.613021 -0.858938,1.04455 -1.56386,1.04455 -0.704917,0 -1.30913,-0.431527 -1.56357,-1.04455"
   class="fil1 str3" /><polyline
   style="fill:none;stroke:#ffffff;stroke-width:0.67533797"
   id="polyline21"
   points="21.1891,56.2586 21.1891,50.3254 19.9745,50.3254 19.9745,55.3716 "
   class="fil1 str3" /><path
   style="fill:none;stroke:#ffffff;stroke-width:0.67533797"
   inkscape:connector-curvature="0"
   id="path23"
   d="m 29.6113,40.4359 h 0.758714 c 0.23711,0 0.430953,0.194226 0.430953,0.430953 v 9.6e-5 c 0,0.236727 -0.194226,0.430953 -0.430953,0.430953 H 29.6113"
   class="fil1 str3" /><path
   style="fill:none;stroke:#ffffff;stroke-width:2.70153999"
   inkscape:connector-curvature="0"
   id="path25"
   d="m 46.5066,10.6634 30.5227,30.5228 c 1.4576,1.4576 1.4576,3.84277 0,5.30038 l -30.5227,30.5227 c -1.4577,1.4576 -3.84277,1.4576 -5.30066,0 l -30.5225,-30.5227 c -1.4576,-1.4576 -1.4576,-3.84277 0,-5.30038 l 30.5225,-30.5228 c 1.45789,-1.4576 3.84297,-1.4576 5.30066,0 z"
   class="fil1 str4" /><path
   style="fill:none;stroke:#ffffff;stroke-width:0.67533797;stroke-dasharray:3.376691, 3.376691"
   inkscape:connector-curvature="0"
   id="path27"
   d="m 46.9482,4.85124 35.6078,35.6078 c 1.70045,1.70055 1.70045,4.48317 0,6.18372 l -35.6078,35.6078 c -1.70055,1.70045 -4.48317,1.70045 -6.18372,0 L 5.15668,46.64276 c -1.70045,-1.70055 -1.70045,-4.48317 0,-6.18372 l 35.6078,-35.6078 c 1.70055,-1.70045 4.48317,-1.70045 6.18372,0 z"
   class="fil1 str5" /><path
   style="fill:none;stroke:#ffffff;stroke-width:0.172305"
   inkscape:connector-curvature="0"
   id="path29"
   d="m 23.3914,49.6423 v 0.922978 M 17.54817,49.6423 v 0.922978 M 18.38289,49.6423 v 0.922978 M 19.21761,49.6423 v 0.922978 M 20.052426,49.6423 v 0.922978 m 0.83472,-0.922978 v 0.922978 m 0.83472,-0.922978 v 0.922978 m 0.83472,-0.922978 v 0.922978"
   class="fil1 str6" /><path
   style="fill:none;stroke:#ffffff;stroke-width:0.172305"
   inkscape:connector-curvature="0"
   id="path31"
   d="m 23.7937,50.1693 v 0.900387 M 17.95056,50.1693 v 0.900387 M 18.78528,50.1693 v 0.900387 M 19.62,50.1693 v 0.900387 M 20.45472,50.1693 v 0.900387 M 21.289536,50.1693 v 0.900387 m 0.83472,-0.900387 v 0.900387 m 0.83472,-0.900387 v 0.900387"
   class="fil1 str6" /><path
   style="fill:#ffffff;fill-rule:nonzero"
   inkscape:connector-curvature="0"
   id="path33"
   d="m 34.4963,45.8354 v 0.52237 H 31.68678 V 41.599 h 0.610437 v 4.2364 h 2.19908 z m 3.76514,0 v 0.52237 H 35.18293 V 41.599 h 3.01179 v 0.52237 h -2.41571 v 1.51379 h 1.91708 v 0.484367 h -1.91708 v 1.71587 h 2.48243 z m 2.26571,0.52237 h -0.592728 v -4.2364 h -1.36245 V 41.599 h 3.32232 v 0.52237 h -1.36714 v 4.2364 z m 1.50996,-1.265 0.536633,-0.122432 c 0.215381,0.64844 0.684241,0.972181 1.40419,0.972181 0.377156,0 0.660501,-0.07974 0.850802,-0.237972 0.190492,-0.159477 0.285643,-0.372465 0.285643,-0.640399 0,-0.202266 -0.07246,-0.36519 -0.217678,-0.487718 -0.145119,-0.123772 -0.31302,-0.208297 -0.503512,-0.254628 l -0.951887,-0.236919 c -0.246396,-0.06308 -0.447322,-0.139184 -0.604502,-0.228399 -0.15718,-0.08931 -0.290333,-0.227251 -0.399842,-0.413052 -0.108169,-0.18561 -0.162924,-0.398598 -0.162924,-0.637814 0,-0.397353 0.149905,-0.714011 0.449619,-0.950643 0.300001,-0.235674 0.684241,-0.353512 1.1532,-0.353512 0.865065,0 1.43386,0.391514 1.70515,1.17454 l -0.540079,0.160626 c -0.06308,-0.278463 -0.210786,-0.490302 -0.442823,-0.633124 -0.232037,-0.14263 -0.479581,-0.214041 -0.742633,-0.214041 -0.260371,0 -0.4926,0.06883 -0.695919,0.205617 -0.203607,0.136886 -0.304692,0.331016 -0.304692,0.582102 0,0.351023 0.258265,0.58775 0.77336,0.711522 l 0.889092,0.212988 c 0.813756,0.195183 1.22087,0.633124 1.22087,1.31373 0,0.411808 -0.153543,0.753258 -0.458234,1.02694 -0.305745,0.272624 -0.736602,0.409511 -1.29228,0.409511 -0.985295,0 -1.63613,-0.453544 -1.95154,-1.3591 z m 9.77091,1.265 h -0.596174 v -2.26561 h -2.20636 v 2.26561 H 48.409312 V 41.599 h 0.596174 v 1.96944 h 2.20636 V 41.599 h 0.596174 z m 4.39204,0 H 55.590868 L 55.10899,44.9667 h -1.76 l -0.426167,1.39107 h -0.49729 l 1.54337,-4.75877 h 0.680507 z m -1.21618,-1.83734 -0.73172,-2.28706 -0.738899,2.28706 z m 5.26103,1.83734 h -0.623743 l -0.879232,-2.0599 h -1.36264 v 2.0599 H 56.82122 V 41.599 h 1.87544 c 0.509256,0 0.886507,0.139184 1.13175,0.416498 0.24496,0.277315 0.367775,0.582007 0.367775,0.911491 0,0.253671 -0.06911,0.496333 -0.205904,0.728274 -0.136886,0.233281 -0.364137,0.398789 -0.67955,0.49863 l 0.934178,2.20387 z m -2.86562,-2.54532 h 1.2449 c 0.327092,0 0.572338,-0.08577 0.732964,-0.259318 0.161871,-0.172592 0.242662,-0.385771 0.242662,-0.636761 0,-0.251086 -0.08558,-0.446269 -0.255777,-0.585453 -0.171443,-0.139184 -0.386728,-0.209542 -0.647387,-0.209542 h -1.31736 v 1.69107 z m 6.94847,-2.21344 -1.60301,4.75877 h -0.575976 l -1.60282,-4.75877 h 0.619818 l 1.32809,3.92567 1.31497,-3.92567 h 0.518924 z m 3.69957,4.2364 v 0.52237 h -3.0786 v -4.75877 h 3.01188 v 0.52237 H 65.5448 v 1.51379 h 1.91718 v 0.484367 H 65.5448 v 1.71587 h 2.48253 z m 0.310435,-0.742633 0.536633,-0.122432 c 0.215381,0.64844 0.684241,0.972181 1.40419,0.972181 0.377156,0 0.660501,-0.07974 0.850802,-0.237972 0.190492,-0.159477 0.285643,-0.372465 0.285643,-0.640399 0,-0.202266 -0.07246,-0.36519 -0.217678,-0.487718 -0.145119,-0.123772 -0.31302,-0.208297 -0.503512,-0.254628 L 69.741956,44.08489 c -0.246396,-0.06308 -0.447322,-0.139184 -0.604502,-0.228399 -0.15718,-0.08931 -0.290333,-0.227251 -0.399842,-0.413052 -0.108169,-0.18561 -0.162924,-0.398598 -0.162924,-0.637814 0,-0.397353 0.149905,-0.714011 0.449619,-0.950643 0.300001,-0.235674 0.684241,-0.353512 1.1532,-0.353512 0.865065,0 1.43386,0.391514 1.70515,1.17454 l -0.540079,0.160626 c -0.06308,-0.278463 -0.210786,-0.490302 -0.442823,-0.633124 -0.232037,-0.14263 -0.479581,-0.214041 -0.742633,-0.214041 -0.260371,0 -0.4926,0.06883 -0.695919,0.205617 -0.203607,0.136886 -0.304692,0.331016 -0.304692,0.582102 0,0.351023 0.258265,0.58775 0.77336,0.711522 l 0.889092,0.212988 c 0.813756,0.195183 1.22087,0.633124 1.22087,1.31373 0,0.411808 -0.153543,0.753258 -0.458234,1.02694 -0.305745,0.272624 -0.736602,0.409511 -1.29228,0.409511 -0.985295,0 -1.63613,-0.453544 -1.95154,-1.3591 z m 5.87721,1.265 h -0.592632 v -4.2364 h -1.36255 v -0.52237 h 3.32241 v 0.52237 h -1.36724 v 4.2364 z"
   class="fil3" />
</svg>