<?xml version="1.0" encoding="UTF-8"?>
<!DOCTYPE svg PUBLIC "-//W3C//DTD SVG 1.1//EN" "http://www.w3.org/Graphics/SVG/1.1/DTD/svg11.dtd">
<!-- Creator: CorelDRAW -->
<svg xmlns="http://www.w3.org/2000/svg" xml:space="preserve" width="91.6712mm" height="91.6161mm" style="shape-rendering:geometricPrecision; text-rendering:geometricPrecision; image-rendering:optimizeQuality; fill-rule:evenodd; clip-rule:evenodd"
viewBox="0 0 87.752 87.6993"
 xmlns:xlink="http://www.w3.org/1999/xlink">
 <defs>
  <style type="text/css">
   <![CDATA[
    .str2 {stroke:white;stroke-width:0.0729423}
    .str0 {stroke:#1B939B;stroke-width:0.0729423}
    .str6 {stroke:white;stroke-width:0.172305}
    .str3 {stroke:white;stroke-width:0.675338}
    .str1 {stroke:white;stroke-width:0.675338;stroke-linejoin:round}
    .str4 {stroke:white;stroke-width:2.70154}
    .str5 {stroke:white;stroke-width:0.675338;stroke-dasharray:3.376691 3.376691}
    .fil1 {fill:none}
    .fil2 {fill:white}
    .fil0 {fill:#1B939B}
    .fil3 {fill:white;fill-rule:nonzero}
   ]]>
  </style>
 </defs>
 <g id="Layer_x0020_1">
  <metadata id="CorelCorpID_0Corel-Layer"/>
  <rect class="fil0 str0" x="0.0364766" y="0.036408" width="87.6791" height="87.6265"/>
  <polygon class="fil1 str1" points="20.5818,50.3254 24.4004,50.3254 24.4004,43.5775 29.624,41.6225 29.624,40.1454 22.9925,40.1454 22.5108,39.8261 21.5463,40.9439 20.5818,40.4249 19.6173,40.9439 18.6527,39.8261 18.171,40.1454 11.5395,40.1454 11.5395,41.6225 16.7631,43.5775 16.7631,50.3254 "/>
  <path class="fil2 str2" d="M20.5818 41.9888c0.142917,0 0.25884,0.115923 0.25884,0.25884 0,0.143013 -0.115923,0.25884 -0.25884,0.25884 -0.142917,0 -0.25884,-0.115827 -0.25884,-0.25884 0,-0.142917 0.115923,-0.25884 0.25884,-0.25884zm0 6.21168c0.142917,0 0.25884,0.115827 0.25884,0.25884 0,0.142917 -0.115923,0.258744 -0.25884,0.258744 -0.142917,0 -0.25884,-0.115827 -0.25884,-0.258744 0,-0.143013 0.115923,-0.25884 0.25884,-0.25884zm0 -1.55294c0.142917,0 0.25884,0.115923 0.25884,0.25884 0,0.142917 -0.115923,0.25884 -0.25884,0.25884 -0.142917,0 -0.25884,-0.115923 -0.25884,-0.25884 0,-0.142917 0.115923,-0.25884 0.25884,-0.25884zm0 -1.55294c0.142917,0 0.25884,0.115923 0.25884,0.25884 0,0.143013 -0.115923,0.25884 -0.25884,0.25884 -0.142917,0 -0.25884,-0.115827 -0.25884,-0.25884 0,-0.142917 0.115923,-0.25884 0.25884,-0.25884zm0 -1.55285c0.142917,0 0.25884,0.115827 0.25884,0.25884 0,0.142917 -0.115923,0.25884 -0.25884,0.25884 -0.142917,0 -0.25884,-0.115923 -0.25884,-0.25884 0,-0.143013 0.115923,-0.25884 0.25884,-0.25884z"/>
  <path class="fil1 str3" d="M23.7644 36.6231c0,1.73157 -1.40428,3.13585 -3.13585,3.13585 -1.73166,0 -3.13585,-1.40428 -3.13585,-3.13585"/>
  <path class="fil1 str3" d="M17.4927 35.3887c0,-1.73157 1.40419,-3.13585 3.13585,-3.13585 1.73157,0 3.13585,1.40428 3.13585,3.13585"/>
  <path class="fil1 str3" d="M24.5707 35.0261c0.495854,0.100415 0.787815,0.260659 0.783124,0.390078 -0.0174219,0.472689 -3.11977,0.561043 -3.5601,0.576742 -1.45865,0.0519785 -2.9712,0.0391514 -4.52003,-0.0169433"/>
  <path class="fil1 str3" d="M22.1924 37.6193c-0.254436,0.613021 -0.858938,1.04455 -1.56386,1.04455 -0.704917,0 -1.30913,-0.431527 -1.56357,-1.04455"/>
  <polyline class="fil1 str3" points="21.1891,56.2586 21.1891,50.3254 19.9745,50.3254 19.9745,55.3716 "/>
  <path class="fil1 str3" d="M29.6113 40.4359l0.758714 0c0.23711,0 0.430953,0.194226 0.430953,0.430953l0 9.57248e-005c0,0.236727 -0.194226,0.430953 -0.430953,0.430953l-0.758714 0"/>
  <path class="fil1 str4" d="M46.5066 10.6634l30.5227 30.5228c1.4576,1.4576 1.4576,3.84277 0,5.30038l-30.5227 30.5227c-1.4577,1.4576 -3.84277,1.4576 -5.30066,0l-30.5225 -30.5227c-1.4576,-1.4576 -1.4576,-3.84277 0,-5.30038l30.5225 -30.5228c1.45789,-1.4576 3.84297,-1.4576 5.30066,0z"/>
  <path class="fil1 str5" d="M46.9482 4.85124l35.6078 35.6078c1.70045,1.70055 1.70045,4.48317 0,6.18372l-35.6078 35.6078c-1.70055,1.70045 -4.48317,1.70045 -6.18372,0l-35.6078 -35.6078c-1.70045,-1.70055 -1.70045,-4.48317 0,-6.18372l35.6078 -35.6078c1.70055,-1.70045 4.48317,-1.70045 6.18372,0z"/>
  <path class="fil1 str6" d="M23.3914 49.6423l0 0.922978m-5.84323 -0.922978l0 0.922978m0.83472 -0.922978l0 0.922978m0.83472 -0.922978l0 0.922978m0.834816 -0.922978l0 0.922978m0.83472 -0.922978l0 0.922978m0.83472 -0.922978l0 0.922978m0.83472 -0.922978l0 0.922978"/>
  <path class="fil1 str6" d="M23.7937 50.1693l0 0.900387m-5.84314 -0.900387l0 0.900387m0.83472 -0.900387l0 0.900387m0.83472 -0.900387l0 0.900387m0.83472 -0.900387l0 0.900387m0.834816 -0.900387l0 0.900387m0.83472 -0.900387l0 0.900387m0.83472 -0.900387l0 0.900387"/>
  <path class="fil3" d="M34.4963 45.8354l0 0.52237 -2.80952 0 0 -4.75877 0.610437 0 0 4.2364 2.19908 0zm3.76514 0l0 0.52237 -3.07851 0 0 -4.75877 3.01179 0 0 0.52237 -2.41571 0 0 1.51379 1.91708 0 0 0.484367 -1.91708 0 0 1.71587 2.48243 0zm2.26571 0.52237l-0.592728 0 0 -4.2364 -1.36245 0 0 -0.52237 3.32232 0 0 0.52237 -1.36714 0 0 4.2364zm1.50996 -1.265l0.536633 -0.122432c0.215381,0.64844 0.684241,0.972181 1.40419,0.972181 0.377156,0 0.660501,-0.0797387 0.850802,-0.237972 0.190492,-0.159477 0.285643,-0.372465 0.285643,-0.640399 0,-0.202266 -0.0724636,-0.36519 -0.217678,-0.487718 -0.145119,-0.123772 -0.31302,-0.208297 -0.503512,-0.254628l-0.951887 -0.236919c-0.246396,-0.0630826 -0.447322,-0.139184 -0.604502,-0.228399 -0.15718,-0.0893112 -0.290333,-0.227251 -0.399842,-0.413052 -0.108169,-0.18561 -0.162924,-0.398598 -0.162924,-0.637814 0,-0.397353 0.149905,-0.714011 0.449619,-0.950643 0.300001,-0.235674 0.684241,-0.353512 1.1532,-0.353512 0.865065,0 1.43386,0.391514 1.70515,1.17454l-0.540079 0.160626c-0.0630826,-0.278463 -0.210786,-0.490302 -0.442823,-0.633124 -0.232037,-0.14263 -0.479581,-0.214041 -0.742633,-0.214041 -0.260371,0 -0.4926,0.0688261 -0.695919,0.205617 -0.203607,0.136886 -0.304692,0.331016 -0.304692,0.582102 0,0.351023 0.258265,0.58775 0.77336,0.711522l0.889092 0.212988c0.813756,0.195183 1.22087,0.633124 1.22087,1.31373 0,0.411808 -0.153543,0.753258 -0.458234,1.02694 -0.305745,0.272624 -0.736602,0.409511 -1.29228,0.409511 -0.985295,0 -1.63613,-0.453544 -1.95154,-1.3591zm9.77091 1.265l-0.596174 0 0 -2.26561 -2.20636 0 0 2.26561 -0.596174 0 0 -4.75877 0.596174 0 0 1.96944 2.20636 0 0 -1.96944 0.596174 0 0 4.75877zm4.39204 0l-0.609192 0 -0.481878 -1.39107 -1.76 0 -0.426167 1.39107 -0.49729 0 1.54337 -4.75877 0.680507 0 1.55065 4.75877zm-1.21618 -1.83734l-0.73172 -2.28706 -0.738899 2.28706 1.47062 0zm5.26103 1.83734l-0.623743 0 -0.879232 -2.0599 -1.36264 0 0 2.0599 -0.558075 0 0 -4.75877 1.87544 0c0.509256,0 0.886507,0.139184 1.13175,0.416498 0.24496,0.277315 0.367775,0.582007 0.367775,0.911491 0,0.253671 -0.0691133,0.496333 -0.205904,0.728274 -0.136886,0.233281 -0.364137,0.398789 -0.67955,0.49863l0.934178 2.20387zm-2.86562 -2.54532l1.2449 0c0.327092,0 0.572338,-0.0857694 0.732964,-0.259318 0.161871,-0.172592 0.242662,-0.385771 0.242662,-0.636761 0,-0.251086 -0.0855779,-0.446269 -0.255777,-0.585453 -0.171443,-0.139184 -0.386728,-0.209542 -0.647387,-0.209542l-1.31736 0 0 1.69107zm6.94847 -2.21344l-1.60301 4.75877 -0.575976 0 -1.60282 -4.75877 0.619818 0 1.32809 3.92567 1.31497 -3.92567 0.518924 0zm3.69957 4.2364l0 0.52237 -3.0786 0 0 -4.75877 3.01188 0 0 0.52237 -2.41581 0 0 1.51379 1.91718 0 0 0.484367 -1.91718 0 0 1.71587 2.48253 0zm0.310435 -0.742633l0.536633 -0.122432c0.215381,0.64844 0.684241,0.972181 1.40419,0.972181 0.377156,0 0.660501,-0.0797387 0.850802,-0.237972 0.190492,-0.159477 0.285643,-0.372465 0.285643,-0.640399 0,-0.202266 -0.0724636,-0.36519 -0.217678,-0.487718 -0.145119,-0.123772 -0.31302,-0.208297 -0.503512,-0.254628l-0.951887 -0.236919c-0.246396,-0.0630826 -0.447322,-0.139184 -0.604502,-0.228399 -0.15718,-0.0893112 -0.290333,-0.227251 -0.399842,-0.413052 -0.108169,-0.18561 -0.162924,-0.398598 -0.162924,-0.637814 0,-0.397353 0.149905,-0.714011 0.449619,-0.950643 0.300001,-0.235674 0.684241,-0.353512 1.1532,-0.353512 0.865065,0 1.43386,0.391514 1.70515,1.17454l-0.540079 0.160626c-0.0630826,-0.278463 -0.210786,-0.490302 -0.442823,-0.633124 -0.232037,-0.14263 -0.479581,-0.214041 -0.742633,-0.214041 -0.260371,0 -0.4926,0.0688261 -0.695919,0.205617 -0.203607,0.136886 -0.304692,0.331016 -0.304692,0.582102 0,0.351023 0.258265,0.58775 0.77336,0.711522l0.889092 0.212988c0.813756,0.195183 1.22087,0.633124 1.22087,1.31373 0,0.411808 -0.153543,0.753258 -0.458234,1.02694 -0.305745,0.272624 -0.736602,0.409511 -1.29228,0.409511 -0.985295,0 -1.63613,-0.453544 -1.95154,-1.3591zm5.87721 1.265l-0.592632 0 0 -4.2364 -1.36255 0 0 -0.52237 3.32241 0 0 0.52237 -1.36724 0 0 4.2364z"/>
 </g>
</svg>
