<?xml version="1.0" encoding="UTF-8" standalone="no"?>
<!-- Created with Inkscape (http://www.inkscape.org/) -->

<svg
   xmlns:dc="http://purl.org/dc/elements/1.1/"
   xmlns:cc="http://creativecommons.org/ns#"
   xmlns:rdf="http://www.w3.org/1999/02/22-rdf-syntax-ns#"
   xmlns:svg="http://www.w3.org/2000/svg"
   xmlns="http://www.w3.org/2000/svg"
   xmlns:sodipodi="http://sodipodi.sourceforge.net/DTD/sodipodi-0.dtd"
   xmlns:inkscape="http://www.inkscape.org/namespaces/inkscape"
   version="1.1"
   id="svg2"
   xml:space="preserve"
   width="618.63159"
   height="850.20709"
   viewBox="0 0 618.63156 850.20705"
   sodipodi:docname="rice.svg"
   inkscape:version="0.92.2 2405546, 2018-03-11"><metadata
     id="metadata8"><rdf:RDF><cc:Work
         rdf:about=""><dc:format>image/svg+xml</dc:format><dc:type
           rdf:resource="http://purl.org/dc/dcmitype/StillImage" /><dc:title></dc:title></cc:Work></rdf:RDF></metadata><defs
     id="defs6"><clipPath
       clipPathUnits="userSpaceOnUse"
       id="clipPath18"><path
         d="M 0,0 H 800 V 800 H 0 Z"
         id="path16"
         inkscape:connector-curvature="0" /></clipPath><clipPath
       clipPathUnits="userSpaceOnUse"
       id="clipPath26"><path
         d="M -32768,32767 H 32767 V -32768 H -32768 Z"
         id="path24"
         inkscape:connector-curvature="0" /></clipPath><radialGradient
       fx="0"
       fy="0"
       cx="0"
       cy="0"
       r="1"
       gradientUnits="userSpaceOnUse"
       gradientTransform="matrix(401.31973,0,0,-401.31973,399.05518,401.69434)"
       spreadMethod="pad"
       id="radialGradient36"><stop
         style="stop-opacity:0;stop-color:#ffffff"
         offset="0"
         id="stop28" /><stop
         style="stop-opacity:0;stop-color:#ffffff"
         offset="0.808729"
         id="stop30" /><stop
         style="stop-opacity:0;stop-color:#ffffff"
         offset="0.8684229"
         id="stop32" /><stop
         style="stop-opacity:0.04998856;stop-color:#ffffff"
         offset="1"
         id="stop34" /></radialGradient><mask
       maskUnits="userSpaceOnUse"
       x="0"
       y="0"
       width="1"
       height="1"
       id="mask38"><g
         id="g48"><g
           clip-path="url(#clipPath26)"
           id="g46"><g
             id="g44"><g
               id="g42"><path
                 d="M -32768,32767 H 32767 V -32768 H -32768 Z"
                 style="fill:url(#radialGradient36);stroke:none"
                 id="path40"
                 inkscape:connector-curvature="0" /></g></g></g></g></mask><radialGradient
       fx="0"
       fy="0"
       cx="0"
       cy="0"
       r="1"
       gradientUnits="userSpaceOnUse"
       gradientTransform="matrix(401.31973,0,0,-401.31973,399.05518,401.69434)"
       spreadMethod="pad"
       id="radialGradient62"><stop
         style="stop-opacity:1;stop-color:#161412"
         offset="0"
         id="stop54" /><stop
         style="stop-opacity:1;stop-color:#161412"
         offset="0.808729"
         id="stop56" /><stop
         style="stop-opacity:1;stop-color:#161412"
         offset="0.8684229"
         id="stop58" /><stop
         style="stop-opacity:1;stop-color:#161412"
         offset="1"
         id="stop60" /></radialGradient><clipPath
       clipPathUnits="userSpaceOnUse"
       id="clipPath72"><path
         d="M 0,800 H 800 V 0 H 0 Z"
         id="path70"
         inkscape:connector-curvature="0" /></clipPath></defs><sodipodi:namedview
     pagecolor="#ffffff"
     bordercolor="#666666"
     borderopacity="1"
     objecttolerance="10"
     gridtolerance="10"
     guidetolerance="10"
     inkscape:pageopacity="0"
     inkscape:pageshadow="2"
     inkscape:window-width="1366"
     inkscape:window-height="697"
     id="namedview4"
     showgrid="false"
     fit-margin-top="0"
     fit-margin-left="0"
     fit-margin-right="0"
     fit-margin-bottom="0"
     inkscape:zoom="0.31289473"
     inkscape:cx="-218.46154"
     inkscape:cy="175.57709"
     inkscape:window-x="0"
     inkscape:window-y="29"
     inkscape:window-maximized="1"
     inkscape:current-layer="g10" /><g
     id="g10"
     inkscape:groupmode="layer"
     inkscape:label="espigas"
     transform="matrix(1.3333333,0,0,-1.3333333,-215.91643,1025.182)"><g
       id="g1673"
       style="fill:#ffffff;fill-opacity:1"><g
         transform="matrix(1.213563,0,0,1.213563,361.42808,522.43112)"
         id="g74"
         style="fill:#ffffff;fill-opacity:1"><path
           inkscape:connector-curvature="0"
           id="path76"
           style="fill:#ffffff;fill-opacity:1;fill-rule:nonzero;stroke:none"
           d="m 0,0 c 0.912,-5.11 5.66,-20.458 10.249,-23.95 4.588,-3.492 6.685,-5.249 10.413,-6.729 5.462,-2.166 5.831,-3.952 7.72,-6.856 0,0 -0.121,15.372 -2.576,20.095 -3.566,6.853 -11.035,9.035 -13.847,10.171 -2.815,1.137 -8.662,3.795 -9.941,9.979 -1.277,6.181 -12.077,47.349 -14.942,48.045 0,0 -2.955,1.824 0.028,-4.291 2.983,-6.116 6.536,-19.848 6.58,-22.131 C -6.275,22.051 -0.913,5.11 0,0" /></g><g
         transform="matrix(1.213563,0,0,1.213563,388.04467,458.05233)"
         id="g78"
         style="fill:#ffffff;fill-opacity:1"><path
           inkscape:connector-curvature="0"
           id="path80"
           style="fill:#ffffff;fill-opacity:1;fill-rule:nonzero;stroke:none"
           d="m 0,0 c 5.462,-2.165 5.831,-3.952 7.72,-6.856 0,0 -0.121,15.369 -2.576,20.092 -3.566,6.858 -11.036,9.037 -13.846,10.176 -2.815,1.136 -5.237,3.646 -6.796,5.851 -2.564,3.625 2.172,-20.226 5.085,-22.535 C -5.896,3.144 -3.728,1.478 0,0" /></g><g
         transform="matrix(1.213563,0,0,1.213563,380.35674,442.82357)"
         id="g82"
         style="fill:#ffffff;fill-opacity:1"><path
           inkscape:connector-curvature="0"
           id="path84"
           style="fill:#ffffff;fill-opacity:1;fill-rule:nonzero;stroke:none"
           d="m 0,0 c 3.627,-2.177 5.411,-3.103 8.389,-3.832 4.359,-1.068 4.7,-2.273 6.271,-4.132 0,0 -0.53,10.61 -2.597,13.678 -2.999,4.455 -9.016,5.742 -11.261,6.308 -2.248,0.567 -3.685,2.346 -4.976,3.749 C -6.292,18.074 -5.732,3.439 0,0" /></g><g
         transform="matrix(1.213563,0,0,1.213563,354.79377,582.88403)"
         id="g86"
         style="fill:#ffffff;fill-opacity:1"><path
           inkscape:connector-curvature="0"
           id="path88"
           style="fill:#ffffff;fill-opacity:1;fill-rule:nonzero;stroke:none"
           d="m 0,0 c 0.516,-2.225 4.467,-18.843 5.38,-23.954 0.912,-5.11 3.617,-23.743 8.206,-27.236 4.588,-3.493 6.685,-5.249 10.414,-6.728 5.461,-2.167 5.83,-3.953 7.719,-6.856 0,0 -0.121,15.369 -2.576,20.091 -3.566,6.856 -11.034,9.036 -13.849,10.172 -2.813,1.139 -5.412,3.324 -7.262,12.967 -7.054,36.788 -19.196,63.782 -22.063,64.479 0,0 -2.405,1.938 0.578,-4.177 C -10.472,32.641 -1.302,5.603 0,0" /></g><g
         transform="matrix(1.213563,0,0,1.213563,357.39978,601.16041)"
         id="g90"
         style="fill:#ffffff;fill-opacity:1"><path
           inkscape:connector-curvature="0"
           id="path92"
           style="fill:#ffffff;fill-opacity:1;fill-rule:nonzero;stroke:none"
           d="m 0,0 c 0.913,-5.111 7.224,-41.19 11.813,-44.682 4.587,-3.492 4.968,-3.772 7.956,-5.231 5.277,-2.58 5.829,-3.951 7.718,-6.855 0,0 -0.608,14.266 -3.064,18.989 -3.567,6.854 -10.545,10.138 -13.361,11.275 -2.812,1.139 -4.989,10.285 -6.838,19.929 -7.056,36.787 -15.527,57.807 -26.887,70.5 0,0 -4.433,4.813 -1.449,-1.303 1.67,-3.424 14.336,-25.024 16.957,-36.314 C -6.638,24.084 -0.912,5.111 0,0" /></g><g
         transform="matrix(1.213563,0,0,1.213563,412.35379,497.82916)"
         id="g94"
         style="fill:#ffffff;fill-opacity:1"><path
           inkscape:connector-curvature="0"
           id="path96"
           style="fill:#ffffff;fill-opacity:1;fill-rule:nonzero;stroke:none"
           d="m 0,0 c -2.55,-1.643 -9.48,-5.181 -11.702,-12.578 -1.532,-5.102 1.219,-20.227 1.219,-20.227 1.315,3.207 1.343,5.031 6.303,8.177 3.387,2.151 5.118,4.271 8.974,8.56 3.857,4.287 5.654,20.252 5.597,25.443 -0.057,5.191 2.048,22.834 1.663,25.084 -0.385,2.251 0.543,16.406 2.33,22.97 1.786,6.565 -0.776,4.222 -0.776,4.222 C 10.924,60.43 8.003,17.971 7.901,11.658 7.801,5.348 2.553,1.645 0,0" /></g><g
         transform="matrix(1.213563,0,0,1.213563,420.32374,477.1702)"
         id="g98"
         style="fill:#ffffff;fill-opacity:1"><path
           inkscape:connector-curvature="0"
           id="path100"
           style="fill:#ffffff;fill-opacity:1;fill-rule:nonzero;stroke:none"
           d="m 0,0 c -1.206,-2.16 -2.535,-4.877 -4.75,-5.984 -2.209,-1.108 -8.147,-3.749 -10.876,-10.465 -1.882,-4.624 -1.775,-19.704 -1.775,-19.704 1.457,2.844 1.727,4.598 6.02,6.703 2.932,1.44 4.658,2.991 8.152,6.565 C 2.296,-17.236 1.979,3.545 0,0" /></g><g
         transform="matrix(1.213563,0,0,1.213563,410.18272,526.05166)"
         id="g102"
         style="fill:#ffffff;fill-opacity:1"><path
           inkscape:connector-curvature="0"
           id="path104"
           style="fill:#ffffff;fill-opacity:1;fill-rule:nonzero;stroke:none"
           d="m 0,0 c -2.536,-1.67 -9.43,-5.274 -11.575,-12.699 -1.48,-5.112 1.428,-20.206 1.428,-20.206 1.281,3.217 1.291,5.042 6.219,8.239 3.365,2.186 5.074,4.32 8.885,8.646 3.813,4.329 2.796,23.129 2.685,28.321 -0.111,5.191 0.492,22.262 0.561,24.544 0.173,5.749 3.841,34.063 5.561,40.646 1.723,6.583 -0.255,4.21 -0.255,4.21 C 10.836,80.455 4.246,51.598 4.567,14.141 4.652,4.322 2.532,1.668 0,0" /></g><g
         transform="matrix(1.213563,0,0,1.213563,407.90013,556.6485)"
         id="g106"
         style="fill:#ffffff;fill-opacity:1"><path
           inkscape:connector-curvature="0"
           id="path108"
           style="fill:#ffffff;fill-opacity:1;fill-rule:nonzero;stroke:none"
           d="m 0,0 c -2.769,-4.679 -8.722,-8.301 -11.059,-15.666 -1.609,-5.074 0.676,-19.64 0.676,-19.64 1.363,3.183 2.547,4.266 7.304,7.712 2.693,1.952 4.027,3.47 6.266,8.784 3.943,9.363 1.936,27.33 0.021,44.095 -0.588,5.158 -3.782,30.855 -5.524,44.793 -1.439,11.502 -2.031,32.458 -0.974,36.118 1.89,6.537 -1.485,0.873 -1.485,0.873 C -11.536,91.794 -1.556,55.5 0.177,18.082 0.639,8.095 1.548,2.611 0,0" /></g><g
         transform="matrix(1.213563,0,0,1.213563,397.2993,583.47006)"
         id="g110"
         style="fill:#ffffff;fill-opacity:1"><path
           inkscape:connector-curvature="0"
           id="path112"
           style="fill:#ffffff;fill-opacity:1;fill-rule:nonzero;stroke:none"
           d="m 0,0 c -4.661,-5.436 -6.901,-12.492 -6.949,-18.6 -0.038,-5.323 3.194,-18.969 3.194,-18.969 0.857,3.357 0.938,4.835 5.109,8.97 2.361,2.342 5.097,6.027 5.858,7.508 2.632,5.13 -3.487,40.807 -4.262,45.942 -0.775,5.132 -3.832,25.675 -4.054,27.947 -1.141,11.535 -6.9,54.19 -7.153,59.967 -0.301,6.798 -1.793,0.769 -1.793,0.769 -3.214,-13.019 4.509,-58.71 9.632,-95.816 C 0.926,7.992 1.976,2.304 0,0" /></g><g
         transform="matrix(1.213563,0,0,1.213563,334.35749,694.49397)"
         id="g114"
         style="fill:#ffffff;fill-opacity:1"><path
           inkscape:connector-curvature="0"
           id="path116"
           style="fill:#ffffff;fill-opacity:1;fill-rule:nonzero;stroke:none"
           d="m 0,0 c 2.588,-4.854 6.248,-14.059 6.84,-15.082 0.594,-1.023 6.936,-17.855 7.681,-19.611 0.748,-1.756 5.329,-19.904 5.854,-21.97 1.262,-4.943 4.549,-21.904 4.973,-24.874 0.423,-2.968 2.586,-14.361 5.364,-18.562 2.776,-4.2 10.02,-6.905 10.02,-6.905 0,0 5.314,9.937 5.956,11.692 -1.854,3.609 -5.084,5.989 -11.161,10.723 -1.189,0.926 -6.562,4.611 -7.502,8.236 -0.94,3.626 -3.145,13.723 -4.428,18.996 -1.28,5.273 -5.191,22.703 -8.059,29.989 C 12.73,-20.231 9.917,-14.255 7.569,-8.439 5.22,-2.622 -0.745,6.841 -1.97,9.07 -3.194,11.3 -8.112,17.541 -9.666,19.511 -11.22,21.482 -11.831,19.488 -10.979,18.476 -10.126,17.459 -2.728,5.118 0,0" /></g><g
         transform="matrix(1.213563,0,0,1.213563,348.40242,732.06515)"
         id="g118"
         style="fill:#ffffff;fill-opacity:1"><path
           inkscape:connector-curvature="0"
           id="path120"
           style="fill:#ffffff;fill-opacity:1;fill-rule:nonzero;stroke:none"
           d="m 0,0 c 1.061,-2.359 8.918,-26.517 9.813,-28.768 0.895,-2.249 8.452,-31.196 8.708,-32.432 0.253,-1.237 5.821,-28.399 6.223,-31.037 0.4,-2.638 -0.065,-7.079 -1.307,-10.774 -1.242,-3.694 -1.522,-9.172 -1.522,-9.172 2.919,-0.256 14.044,-11.588 14.044,-11.588 0,0 1.974,3.131 2.816,4.594 0.844,1.465 0.468,8.601 -0.327,12.447 -0.795,3.847 -4.722,7.994 -5.498,8.98 -0.779,0.985 -3.803,4.991 -4.01,7.382 -0.207,2.392 -9.687,39.489 -10.203,42.676 C 18.221,-44.504 10.762,-22.27 8.57,-15.131 6.38,-7.993 -4.315,16.726 -4.874,18.042 -5.431,19.359 -7.379,18.384 -6.351,16.878 -5.323,15.371 -1.059,2.359 0,0" /></g><g
         transform="matrix(1.213563,0,0,1.213563,520.59681,557.65224)"
         id="g122"
         style="fill:#ffffff;fill-opacity:1"><path
           inkscape:connector-curvature="0"
           id="path124"
           style="fill:#ffffff;fill-opacity:1;fill-rule:nonzero;stroke:none"
           d="m 0,0 c 2.545,4.526 13.185,18.754 13.978,20.896 0.79,2.142 8.149,14.154 12.979,18.946 4.831,4.792 1.955,3.828 1.955,3.828 C 25.978,43.956 2.228,8.638 -1.014,3.222 c -3.241,-5.415 -9.639,-6.001 -12.67,-6.149 -3.03,-0.149 -10.801,0.252 -16.424,-5.046 -3.874,-3.652 -9.049,-18.125 -9.049,-18.125 2.74,2.119 3.677,3.683 9.547,3.932 4.006,0.168 6.564,1.138 12.048,2.925 C -12.079,-17.456 -2.545,-4.526 0,0" /></g><g
         transform="matrix(1.213563,0,0,1.213563,502.48463,533.14809)"
         id="g126"
         style="fill:#ffffff;fill-opacity:1"><path
           inkscape:connector-curvature="0"
           id="path128"
           style="fill:#ffffff;fill-opacity:1;fill-rule:nonzero;stroke:none"
           d="m 0,0 c -2.198,-1.569 -5.312,-3.141 -8.344,-3.287 -3.03,-0.15 -10.8,0.25 -16.425,-5.047 -3.874,-3.652 -9.046,-18.126 -9.046,-18.126 2.739,2.12 3.676,3.685 9.545,3.933 4.008,0.168 6.603,1.029 12.049,2.925 C -8.711,-18.382 3.613,2.578 0,0" /></g><g
         transform="matrix(1.213563,0,0,1.213563,485.12497,505.48262)"
         id="g130"
         style="fill:#ffffff;fill-opacity:1"><path
           inkscape:connector-curvature="0"
           id="path132"
           style="fill:#ffffff;fill-opacity:1;fill-rule:nonzero;stroke:none"
           d="m 0,0 c -1.68,-0.897 -3.623,-2.104 -5.932,-1.898 -2.308,0.205 -8.414,0.971 -12.71,-2.25 -2.962,-2.217 -6.955,-12.06 -6.955,-12.06 2.095,1.237 2.816,2.263 7.282,1.838 3.049,-0.293 5.042,-0.004 9.181,0.854 C -2.587,-12.153 2.759,1.477 0,0" /></g><g
         transform="matrix(1.213563,0,0,1.213563,581.52617,655.91055)"
         id="g134"
         style="fill:#ffffff;fill-opacity:1"><path
           inkscape:connector-curvature="0"
           id="path136"
           style="fill:#ffffff;fill-opacity:1;fill-rule:nonzero;stroke:none"
           d="m 0,0 c -2.937,0.286 -22.637,-21.295 -41.411,-53.708 -4.921,-8.498 -8.096,-9.704 -11.125,-9.853 -3.031,-0.147 -10.802,0.253 -16.425,-5.046 -3.873,-3.651 -9.049,-18.124 -9.049,-18.124 2.74,2.119 3.677,3.685 9.545,3.933 4.01,0.167 6.567,1.137 12.05,2.923 5.483,1.787 14.172,18.492 16.717,23.017 2.543,4.526 11.745,18.918 12.967,20.847 3.072,4.863 20.276,28.344 25.106,33.136 C 3.205,1.918 0,0 0,0" /></g><g
         transform="matrix(1.213563,0,0,1.213563,604.07781,693.32069)"
         id="g138"
         style="fill:#ffffff;fill-opacity:1"><path
           inkscape:connector-curvature="0"
           id="path140"
           style="fill:#ffffff;fill-opacity:1;fill-rule:nonzero;stroke:none"
           d="m 0,0 c -14.904,-8.245 -29.823,-25.304 -48.599,-57.718 -4.921,-8.498 -9.987,-16.418 -13.017,-16.566 -3.032,-0.148 -10.705,-0.95 -16.327,-6.25 -3.873,-3.65 -9.146,-16.921 -9.146,-16.921 2.739,2.12 3.712,3.235 9.546,3.933 3.301,0.395 3.751,0.533 9.234,2.319 5.485,1.787 23.318,33.777 25.863,38.303 2.546,4.525 14.198,20.557 15.42,22.486 6.191,9.797 24.864,26.405 27.568,29.087 C 5.373,3.467 0,0 0,0" /></g><g
         transform="matrix(1.213563,0,0,1.213563,458.60789,522.61595)"
         id="g142"
         style="fill:#ffffff;fill-opacity:1"><path
           inkscape:connector-curvature="0"
           id="path144"
           style="fill:#ffffff;fill-opacity:1;fill-rule:nonzero;stroke:none"
           d="m 0,0 c 3.646,-4.604 3.073,-6.333 3.258,-9.794 0,0 7.578,13.373 7.81,18.691 0.338,7.717 -5.042,13.34 -6.909,15.731 -1.868,2.393 -5.606,7.618 -3.623,13.61 1.983,5.992 13.204,47.048 11.071,49.083 0,0 -1.649,3.057 -2.123,-3.73 C 9.013,76.803 5.227,63.132 4.123,61.134 3.018,59.136 -0.802,41.785 -2.565,36.901 -4.328,32.018 -7.889,16.35 -5.658,11.034 -3.428,5.715 -2.492,3.147 0,0" /></g><g
         transform="matrix(1.213563,0,0,1.213563,449.49076,498.70608)"
         id="g146"
         style="fill:#ffffff;fill-opacity:1"><path
           inkscape:connector-curvature="0"
           id="path148"
           style="fill:#ffffff;fill-opacity:1;fill-rule:nonzero;stroke:none"
           d="m 0,0 c 3.36,-3.4 3.038,-5.145 3.476,-8.311 0,0 5.067,14.204 4.813,19.191 -0.366,7.237 -5.102,11.684 -6.823,13.46 -1.728,1.773 -2.09,4.776 -2.517,7.213 C -1.753,35.552 -8.893,16.038 -5.536,8.883 -3.415,4.359 -2.294,2.322 0,0" /></g><g
         transform="matrix(1.213563,0,0,1.213563,463.70037,560.57243)"
         id="g150"
         style="fill:#ffffff;fill-opacity:1"><path
           inkscape:connector-curvature="0"
           id="path152"
           style="fill:#ffffff;fill-opacity:1;fill-rule:nonzero;stroke:none"
           d="m 0,0 c 2.032,-5.395 2.876,-7.998 5.25,-11.231 3.478,-4.735 2.842,-6.445 2.901,-9.908 0,0 8.059,13.09 8.486,18.395 0.62,7.702 -4.554,13.515 -6.333,15.972 -1.779,2.458 -2.824,5.689 0.731,14.842 13.555,34.921 17.599,64.243 15.541,66.353 0,0 -1.01,2.92 -1.728,-3.846 C 24.127,83.812 17.54,56.031 15.667,50.592 14.923,48.433 9.448,32.253 7.505,27.437 5.565,22.622 -2.037,5.396 0,0" /></g><g
         transform="matrix(1.213563,0,0,1.213563,482.17286,571.50336)"
         id="g154"
         style="fill:#ffffff;fill-opacity:1"><path
           inkscape:connector-curvature="0"
           id="path156"
           style="fill:#ffffff;fill-opacity:1;fill-rule:nonzero;stroke:none"
           d="m 0,0 c 3.229,-4.908 3.954,-6.337 4.104,-9.799 0,0 7.288,12.816 7.579,18.131 0.42,7.715 -3.864,13.21 -4.801,18.565 -0.523,2.991 2.268,7.797 6.234,16.975 14.859,34.385 37.035,64.801 36.118,81.478 0,0 -1.153,6.492 -1.699,-0.29 C 47.229,121.263 39.26,101.871 33.846,91.623 27.285,79.203 15.205,56.298 12.828,51.682 5.106,36.678 -3.128,20.584 -2.753,10.433 -2.54,4.671 -1.828,2.778 0,0" /></g><g
         transform="matrix(1.213563,0,0,1.213563,518.48133,655.95679)"
         id="g158"
         style="fill:#ffffff;fill-opacity:1"><path
           inkscape:connector-curvature="0"
           id="path160"
           style="fill:#ffffff;fill-opacity:1;fill-rule:nonzero;stroke:none"
           d="m 0,0 c -2.663,-4.456 -21.847,-35.153 -21.355,-40.898 0.142,-1.659 1.278,-6.107 2.574,-9.167 2.294,-5.409 1.809,-6.808 1.332,-10.239 0,0 8.161,11.403 10.14,16.345 2.273,5.67 2.873,13.049 0.621,19.847 -0.957,2.88 2.171,7.745 7.101,16.237 18.803,32.397 43.266,71.752 45.224,85.017 0,0 0.906,6.146 -1.949,-0.031 C 41.263,71.86 19.77,34.569 14.343,24.327 13.276,22.309 2.663,4.458 0,0" /></g><g
         transform="matrix(1.213563,0,0,1.213563,623.85986,727.01296)"
         id="g162"
         style="fill:#ffffff;fill-opacity:1"><path
           inkscape:connector-curvature="0"
           id="path164"
           style="fill:#ffffff;fill-opacity:1;fill-rule:nonzero;stroke:none"
           d="m 0,0 c -2.114,-1.35 -8.813,-5.623 -10.703,-7.326 -1.891,-1.702 -10.64,-8.672 -14.772,-13.392 -4.13,-4.72 -8.755,-9.436 -13.757,-15.251 -5.105,-5.935 -14.538,-21.106 -17.484,-25.663 -2.945,-4.558 -8.35,-13.364 -10.431,-16.479 -2.083,-3.114 -8.293,-5.198 -9.798,-5.307 -4.786,-0.351 -12.392,-3.112 -12.324,-7.186 0.031,-1.869 -2.776,-12.469 -2.776,-12.469 0,0 10.536,0.372 14.542,3.424 4.006,3.052 9.799,13.097 11.176,15.761 1.376,2.665 10.068,17.597 12.884,21.85 1.177,1.778 11.479,17.406 12.76,18.819 1.283,1.412 12.813,15.217 13.71,15.988 0.898,0.772 7.381,8.259 11.425,11.99 4.26,3.934 15.021,13.972 16.164,14.651 C 1.753,0.085 2.116,1.349 0,0" /></g><g
         transform="matrix(1.213563,0,0,1.213563,534.49587,656.52801)"
         id="g166"
         style="fill:#ffffff;fill-opacity:1"><path
           inkscape:connector-curvature="0"
           id="path168"
           style="fill:#ffffff;fill-opacity:1;fill-rule:nonzero;stroke:none"
           d="m 0,0 c -0.983,-2.191 -5.157,-4.979 -6.216,-5.654 -1.057,-0.675 -5.696,-3.783 -7.711,-7.153 -2.017,-3.37 -3.865,-8.64 -3.55,-10.299 0.315,-1.661 0.247,-5.053 0.247,-5.053 0,0 10.143,4.993 12.984,4.275 0,0 5.238,6.235 5.283,10.132 0.042,3.897 1.063,8.245 2.312,10.603 1.248,2.359 15.446,26.175 16.093,27.258 0.649,1.082 17.314,25.928 18.901,27.759 1.585,1.829 16.957,22.054 18.734,23.933 1.778,1.878 9.462,13.231 10.927,14.315 1.467,1.085 0.578,2.176 -0.384,1.116 C 66.66,90.173 48.425,70.354 44.005,64.334 39.586,58.315 25.222,39.776 23.686,36.936 22.15,34.095 0.985,2.189 0,0" /></g><g
         transform="matrix(1.213563,0,0,1.213563,235.8527,516.45092)"
         id="g170"
         style="fill:#ffffff;fill-opacity:1"><path
           inkscape:connector-curvature="0"
           id="path172"
           style="fill:#ffffff;fill-opacity:1;fill-rule:nonzero;stroke:none"
           d="m 0,0 c 4.905,-4.714 12.973,-16.382 13.797,-18.511 0.827,-2.128 11.694,-16.182 14.311,-20.668 2.619,-4.483 12.359,-17.257 17.87,-18.955 5.512,-1.698 8.085,-2.626 12.094,-2.731 5.872,-0.15 6.835,-1.701 9.61,-3.778 0,0 -5.409,14.389 -9.34,17.978 -5.707,5.207 -13.471,4.682 -16.504,4.781 -3.032,0.1 -9.44,0.581 -12.769,5.944 C 25.742,-30.577 1.427,4.353 -1.504,4.021 -1.504,4.021 -4.907,4.714 0,0" /></g><g
         transform="matrix(1.213563,0,0,1.213563,303.68068,421.14897)"
         id="g174"
         style="fill:#ffffff;fill-opacity:1"><path
           inkscape:connector-curvature="0"
           id="path176"
           style="fill:#ffffff;fill-opacity:1;fill-rule:nonzero;stroke:none"
           d="m 0,0 c 5.477,-1.809 8.084,-2.627 12.095,-2.73 5.872,-0.154 6.835,-1.702 9.607,-3.777 0,0 -5.406,14.388 -9.338,17.976 -5.708,5.207 -13.471,4.682 -16.505,4.783 -3.032,0.098 -6.17,1.619 -8.394,3.152 C -16.188,21.926 -3.529,1.166 0,0" /></g><g
         transform="matrix(1.213563,0,0,1.213563,317.61894,401.09314)"
         id="g178"
         style="fill:#ffffff;fill-opacity:1"><path
           inkscape:connector-curvature="0"
           id="path180"
           style="fill:#ffffff;fill-opacity:1;fill-rule:nonzero;stroke:none"
           d="m 0,0 c 4.153,-0.792 6.149,-1.049 9.194,-0.706 4.459,0.497 5.198,-0.518 7.309,-1.722 0,0 -4.151,9.779 -7.148,11.947 -4.346,3.152 -10.439,2.287 -12.744,2.046 -2.305,-0.244 -4.267,0.932 -5.963,1.804 C -12.133,14.8 -6.566,1.256 0,0" /></g><g
         transform="matrix(1.213563,0,0,1.213563,256.74164,497.95246)"
         id="g182"
         style="fill:#ffffff;fill-opacity:1"><path
           inkscape:connector-curvature="0"
           id="path184"
           style="fill:#ffffff;fill-opacity:1;fill-rule:nonzero;stroke:none"
           d="m 0,0 c 2.618,-4.484 11.573,-21.045 17.086,-22.742 5.51,-1.697 8.082,-2.626 12.094,-2.729 5.872,-0.154 6.834,-1.703 9.607,-3.779 0,0 -5.408,14.389 -9.339,17.977 -5.706,5.207 -13.469,4.681 -16.503,4.781 -3.031,0.099 -6.226,1.254 -11.284,9.67 -19.294,32.106 -39.987,53.268 -42.918,52.934 0,0 -2.926,0.992 1.98,-3.722 C -34.369,47.676 -16.452,25.449 -13.3,20.636 -12.049,18.727 -2.616,4.484 0,0" /></g><g
         transform="matrix(1.213563,0,0,1.213563,217.6978,566.83454)"
         id="g186"
         style="fill:#ffffff;fill-opacity:1"><path
           inkscape:connector-curvature="0"
           id="path188"
           style="fill:#ffffff;fill-opacity:1;fill-rule:nonzero;stroke:none"
           d="m 0,0 c 1.252,-1.91 13.161,-17.75 15.778,-22.235 2.618,-4.484 20.966,-36.183 26.478,-37.881 5.512,-1.697 5.964,-1.828 9.27,-2.17 5.845,-0.603 6.835,-1.702 9.61,-3.776 0,0 -5.487,13.183 -9.418,16.769 -5.708,5.209 -13.392,5.887 -16.425,5.986 -3.034,0.099 -8.228,7.937 -13.283,16.354 -19.295,32.107 -34.487,48.924 -49.523,56.928 0,0 -5.819,2.991 -0.913,-1.723 C -25.68,25.613 -6.349,9.696 0,0" /></g><g
         transform="matrix(1.213563,0,0,1.213563,326.98133,464.67547)"
         id="g190"
         style="fill:#ffffff;fill-opacity:1"><path
           inkscape:connector-curvature="0"
           id="path192"
           style="fill:#ffffff;fill-opacity:1;fill-rule:nonzero;stroke:none"
           d="m 0,0 c -1.828,-2.42 -7.115,-8.128 -6.655,-15.839 0.318,-5.315 8.109,-18.565 8.109,-18.565 0.131,3.463 -0.472,5.185 3.103,9.847 2.439,3.185 3.335,5.768 5.479,11.122 2.144,5.352 -1.668,20.961 -3.509,25.815 -1.843,4.855 -5.943,22.141 -7.08,24.119 -1.135,1.98 -5.14,15.59 -5.72,22.368 -0.585,6.779 -2.183,3.696 -2.183,3.696 C -10.557,60.493 1.325,19.628 3.404,13.667 5.483,7.706 1.828,2.423 0,0" /></g><g
         transform="matrix(1.213563,0,0,1.213563,342.00986,411.11329)"
         id="g194"
         style="fill:#ffffff;fill-opacity:1"><path
           inkscape:connector-curvature="0"
           id="path196"
           style="fill:#ffffff;fill-opacity:1;fill-rule:nonzero;stroke:none"
           d="M 0,0 C 2.257,2.361 3.344,4.414 5.394,8.972 8.635,16.178 1.182,35.576 0.543,31.564 0.155,29.123 -0.158,26.114 -1.856,24.313 -3.55,22.512 -8.213,17.988 -8.462,10.744 -8.636,5.754 -3.341,-8.365 -3.341,-8.365 -2.953,-5.192 -3.305,-3.455 0,0" /></g><g
         transform="matrix(1.213563,0,0,1.213563,314.04451,488.59237)"
         id="g198"
         style="fill:#ffffff;fill-opacity:1"><path
           inkscape:connector-curvature="0"
           id="path200"
           style="fill:#ffffff;fill-opacity:1;fill-rule:nonzero;stroke:none"
           d="m 0,0 c -1.739,-2.486 -6.817,-8.382 -6.074,-16.071 0.512,-5.298 8.781,-18.257 8.781,-18.257 0.002,3.462 -0.659,5.162 2.74,9.953 2.323,3.271 3.124,5.888 5.072,11.315 1.948,5.429 -5.932,22.529 -7.951,27.31 -2.017,4.785 -7.754,20.875 -8.532,23.021 -1.958,5.409 -8.994,33.079 -9.823,39.832 -0.829,6.753 -1.79,3.818 -1.79,3.818 -2.024,-2.144 2.493,-31.397 16.608,-66.093 C 2.732,5.731 1.739,2.485 0,0" /></g><g
         transform="matrix(1.213563,0,0,1.213563,299.28394,515.87497)"
         id="g202"
         style="fill:#ffffff;fill-opacity:1"><path
           inkscape:connector-curvature="0"
           id="path204"
           style="fill:#ffffff;fill-opacity:1;fill-rule:nonzero;stroke:none"
           d="m 0,0 c -0.851,-5.37 -5.047,-10.933 -4.5,-18.64 0.376,-5.308 7.87,-18.006 7.87,-18.006 0.093,3.465 0.792,4.907 3.945,9.866 1.783,2.806 2.465,4.71 2.583,10.472 0.213,10.157 -8.279,26.118 -16.243,40.995 -2.449,4.577 -14.897,27.283 -21.658,39.596 -5.578,10.16 -13.858,29.421 -14.226,33.213 -0.656,6.772 -1.704,0.263 -1.704,0.263 C -44.582,81.069 -21.918,51.013 -6.508,16.872 -2.393,7.761 0.475,2.998 0,0" /></g><g
         transform="matrix(1.213563,0,0,1.213563,270.14884,557.66704)"
         id="g206"
         style="fill:#ffffff;fill-opacity:1"><path
           inkscape:connector-curvature="0"
           id="path208"
           style="fill:#ffffff;fill-opacity:1;fill-rule:nonzero;stroke:none"
           d="m 0,0 c 5.065,-8.412 8.272,-13.226 7.363,-16.12 -2.142,-6.834 -1.425,-14.201 0.939,-19.836 2.058,-4.908 10.403,-16.179 10.403,-16.179 -0.533,3.423 -1.039,4.816 1.165,10.259 1.248,3.081 2.312,7.548 2.428,9.207 0.399,5.752 -19.277,36.137 -22.012,40.549 -2.733,4.414 -13.634,22.093 -14.733,24.093 -5.591,10.153 -27.682,47.093 -30.191,52.305 -2.953,6.13 -1.949,0 -1.949,0 C -44.415,71.045 -19.321,32.09 0,0" /></g><g
         transform="matrix(1.213563,0,0,1.213563,572.9163,568.19689)"
         id="g210"
         style="fill:#ffffff;fill-opacity:1"><path
           inkscape:connector-curvature="0"
           id="path212"
           style="fill:#ffffff;fill-opacity:1;fill-rule:nonzero;stroke:none"
           d="m 0,0 c -10.126,-4.288 -25.266,-16.164 -25.266,-16.164 -18.303,-12.344 -58.708,-64.969 -58.708,-64.969 -8.232,-9.069 -23.35,-38.394 -32.987,-57.941 l 1.833,7.7 c 0,0 6.068,20.342 8.881,30.866 1.939,7.269 6.301,14.233 8.809,17.846 1.02,1.172 6.851,5.682 10.413,6.424 6.546,1.359 14.83,13.842 12.072,12.365 -1.68,-0.901 -6.519,-3.887 -11.15,-3.109 -4.271,0.716 -8.438,-1.172 -12.736,-4.395 -0.932,-0.697 -1.815,-2.005 -2.595,-3.469 0.923,3.405 1.652,6.815 1.552,8.785 -0.366,7.24 -6.174,11.118 -7.896,12.893 -1.726,1.773 -2.149,6.736 -2.576,9.172 -0.704,3.999 -5.228,-12.114 -1.966,-19.312 3.861,-8.524 4.991,-14.378 4.445,-17.817 -1.6,-11.18 -14.022,-49.905 -14.022,-49.905 l -12.174,-46.559 c -5.591,-16.365 -9.054,-33.446 -11.2,-49.269 l 3.75,46.94 c 0,0 1.02,40.656 3.191,51.739 0.615,3.428 3.607,8.585 10.06,15.358 5.45,5.723 6.482,22.43 4.502,18.883 -1.205,-2.158 -3.238,-6.705 -5.45,-7.811 -2.213,-1.109 -8.973,-2.858 -11.703,-9.574 -0.743,-1.828 -1.176,-5.287 -1.428,-8.803 -0.25,1.638 -0.655,3.164 -1.306,4.127 -2.997,4.457 -6.31,7.612 -10.578,8.342 -4.629,0.79 -8.215,5.203 -9.506,6.607 -2.119,2.301 1.594,-12.211 7.329,-15.65 3.119,-1.873 7.14,-8.049 7.717,-9.492 1.179,-4.239 3.003,-12.25 2.444,-19.754 -0.811,-10.861 -1.776,-32.066 -1.776,-32.066 l -5.179,-50.726 -1.53,-24.068 c -0.408,1.193 -0.808,2.389 -1.237,3.576 l -12.923,46.358 c 0,0 -13.044,38.519 -14.823,49.67 -0.602,3.431 0.434,9.302 4.158,17.887 3.145,7.249 -1.638,23.288 -2.277,19.276 -0.388,-2.442 -0.73,-7.41 -2.429,-9.21 -1.693,-1.802 -7.438,-5.773 -7.687,-13.018 -0.068,-1.971 0.717,-5.37 1.692,-8.759 -0.801,1.451 -1.707,2.745 -2.649,3.428 -4.349,3.15 -8.546,4.972 -12.805,4.187 -4.618,-0.852 -9.503,2.056 -11.198,2.928 -2.781,1.433 5.701,-10.913 12.269,-12.169 3.573,-0.683 9.476,-5.098 10.514,-6.254 2.567,-3.572 7.039,-10.465 9.098,-17.701 2.977,-10.476 9.376,-30.718 9.376,-30.718 l 1.959,-7.673 c -9.951,19.391 -25.543,48.469 -33.919,57.406 0,0 -41.247,51.967 -59.747,64.013 0,0 -15.328,11.63 -25.523,15.755 -10.193,4.123 -19.549,6.211 -25.145,5.727 0,0 27.174,-12.246 35.618,-20.147 8.447,-7.906 20.739,-18.006 27.891,-24.775 8.625,-8.163 23.705,-27.703 28.967,-34.68 5.71,-7.57 22.435,-34.69 28.636,-43.642 6.004,-8.665 18.382,-32.623 21.936,-43.289 3.611,-10.832 12.122,-31.611 15.503,-40.775 0.24,-0.65 0.51,-1.385 0.8,-2.178 -4.174,6.925 -15.107,24.904 -17.336,28.669 -2.555,4.32 -9.213,10.975 -18.497,17.63 -5.294,3.794 -21.268,9.562 -21.268,9.562 0,0 22.916,-14.989 35.401,-37.062 8.495,-15.016 22.792,-35.617 31.268,-47.53 0.887,-3.243 1.496,-5.976 1.633,-7.749 0.361,-4.61 2.746,-18.972 0.398,-32.13 -0.881,-4.93 1.387,-13.215 3.862,-13.724 2.479,-0.509 4.447,0.28 4.616,2.142 0,0 -2.895,8.672 -0.803,18.678 2.378,11.378 13.212,52.256 18.358,89.127 5.134,36.742 30.663,70.2 30.663,70.2 0,0 -21.037,-17.177 -26.202,-25.186 -9.059,-14.044 -14.542,-26.676 -15.699,-33.926 -0.736,-4.605 -3.702,-21.935 -6.019,-35.525 -1.263,8.68 -1.652,15.665 -1.06,19.017 2.067,11.71 2.609,18.787 3.445,22.042 8.283,12.05 18.154,31.447 26.406,46.6 12.13,22.27 36.514,37.527 36.514,37.527 0,0 -17.592,-5.923 -22.824,-9.804 -9.176,-6.805 -15.725,-13.564 -18.211,-17.925 -2.167,-3.8 -12.811,-21.955 -16.871,-28.944 0.275,0.798 0.534,1.536 0.763,2.19 3.234,9.217 11.41,30.129 14.843,41.017 3.383,10.723 15.374,34.878 21.236,43.639 6.057,9.051 22.344,36.437 27.931,44.098 5.148,7.061 19.914,26.842 28.404,35.141 7.043,6.885 19.17,17.184 27.488,25.221 C -1.922,-6.55 25.345,6.278 25.345,6.278 19.742,6.673 10.125,4.288 0,0" /></g><g
         transform="matrix(1.213563,0,0,1.213563,197.24866,604.06568)"
         id="g214"
         style="fill:#ffffff;fill-opacity:1"><path
           inkscape:connector-curvature="0"
           id="path216"
           style="fill:#ffffff;fill-opacity:1;fill-rule:nonzero;stroke:none"
           d="m 0,0 c 0.909,-0.757 12.661,-14.375 13.965,-15.766 1.306,-1.392 11.855,-16.852 13.062,-18.61 2.885,-4.207 11.816,-18.998 13.235,-21.64 1.419,-2.642 7.373,-12.592 11.427,-15.58 4.055,-2.986 14.595,-3.189 14.595,-3.189 0,0 -2.977,10.555 -2.976,12.424 0.005,4.074 -7.646,6.713 -12.438,6.985 -1.505,0.086 -7.749,2.069 -9.881,5.149 -2.131,3.081 -7.677,11.798 -10.697,16.309 -3.02,4.509 -12.694,19.526 -17.895,25.378 C 7.302,-2.806 2.604,1.835 -1.604,6.487 -5.812,11.14 -14.671,17.968 -16.589,19.64 c -1.917,1.672 -8.684,5.838 -10.819,7.152 -2.138,1.315 -2.028,-0.768 -0.879,-1.424 1.153,-0.661 12.347,-9.699 16.671,-13.564 C -7.515,8.138 -0.91,0.757 0,0" /></g><g
         transform="matrix(1.213563,0,0,1.213563,169.44326,674.97793)"
         id="g218"
         style="fill:#ffffff;fill-opacity:1"><path
           inkscape:connector-curvature="0"
           id="path220"
           style="fill:#ffffff;fill-opacity:1;fill-rule:nonzero;stroke:none"
           d="m 0,0 c 1.481,-1.061 9.968,-11.808 11.776,-13.657 1.808,-1.849 17.504,-21.823 19.118,-23.628 1.615,-1.806 18.679,-26.378 19.346,-27.45 0.663,-1.072 15.244,-24.657 16.53,-26.995 1.287,-2.338 2.377,-6.669 2.483,-10.565 0.106,-3.896 5.453,-10.648 5.453,-10.648 2.827,0.764 13.042,-3.463 13.042,-3.463 0,0 -0.121,3.391 0.167,5.055 0.286,1.664 -1.645,6.905 -3.715,10.242 -2.071,3.337 -6.759,6.371 -7.828,7.028 -1.069,0.658 -5.286,3.378 -6.305,5.552 -1.02,2.174 -22.696,33.735 -24.279,36.55 -1.58,2.816 -16.241,21.121 -20.756,27.068 C 20.516,-18.964 1.964,0.559 0.986,1.604 0.007,2.647 -1.485,1.061 0,0" /></g><g
         transform="matrix(1.213563,0,0,1.213563,361.42808,523.64517)"
         id="g222"
         style="fill:#ffffff;fill-opacity:1"><path
           inkscape:connector-curvature="0"
           id="path224"
           style="fill:#ffffff;fill-opacity:1;fill-rule:nonzero;stroke:none"
           d="m 0,0 c 0.912,-5.11 5.66,-20.458 10.249,-23.95 4.588,-3.492 6.685,-5.249 10.413,-6.729 5.462,-2.166 5.831,-3.952 7.72,-6.856 0,0 -0.121,15.372 -2.576,20.095 -3.566,6.853 -11.035,9.035 -13.847,10.171 -2.815,1.137 -8.662,3.795 -9.941,9.979 -1.277,6.181 -12.077,47.349 -14.942,48.045 0,0 -2.955,1.824 0.028,-4.291 2.983,-6.116 6.536,-19.848 6.58,-22.131 C -6.275,22.051 -0.913,5.11 0,0" /></g><g
         transform="matrix(1.213563,0,0,1.213563,388.04467,459.26711)"
         id="g226"
         style="fill:#ffffff;fill-opacity:1"><path
           inkscape:connector-curvature="0"
           id="path228"
           style="fill:#ffffff;fill-opacity:1;fill-rule:nonzero;stroke:none"
           d="m 0,0 c 5.462,-2.165 5.831,-3.952 7.72,-6.856 0,0 -0.121,15.369 -2.576,20.091 -3.566,6.859 -11.036,9.037 -13.846,10.176 -2.815,1.137 -5.237,3.647 -6.796,5.852 -2.564,3.625 2.172,-20.227 5.085,-22.535 C -5.896,3.144 -3.728,1.478 0,0" /></g><g
         transform="matrix(1.213563,0,0,1.213563,380.35674,444.03835)"
         id="g230"
         style="fill:#ffffff;fill-opacity:1"><path
           inkscape:connector-curvature="0"
           id="path232"
           style="fill:#ffffff;fill-opacity:1;fill-rule:nonzero;stroke:none"
           d="m 0,0 c 3.627,-2.177 5.411,-3.103 8.389,-3.832 4.359,-1.068 4.7,-2.273 6.271,-4.132 0,0 -0.53,10.61 -2.597,13.678 -2.999,4.455 -9.016,5.742 -11.261,6.308 -2.248,0.567 -3.685,2.345 -4.976,3.749 C -6.292,18.073 -5.732,3.439 0,0" /></g><g
         transform="matrix(1.213563,0,0,1.213563,354.79377,584.0982)"
         id="g234"
         style="fill:#ffffff;fill-opacity:1"><path
           inkscape:connector-curvature="0"
           id="path236"
           style="fill:#ffffff;fill-opacity:1;fill-rule:nonzero;stroke:none"
           d="m 0,0 c 0.516,-2.225 4.467,-18.843 5.38,-23.954 0.912,-5.11 3.617,-23.743 8.206,-27.236 4.588,-3.493 6.685,-5.249 10.414,-6.728 5.461,-2.167 5.83,-3.953 7.719,-6.856 0,0 -0.121,15.369 -2.576,20.091 -3.566,6.856 -11.034,9.036 -13.849,10.172 -2.813,1.139 -5.412,3.324 -7.262,12.967 -7.054,36.788 -19.196,63.782 -22.063,64.479 0,0 -2.405,1.938 0.578,-4.177 C -10.472,32.641 -1.302,5.603 0,0" /></g><g
         transform="matrix(1.213563,0,0,1.213563,357.39978,602.37458)"
         id="g238"
         style="fill:#ffffff;fill-opacity:1"><path
           inkscape:connector-curvature="0"
           id="path240"
           style="fill:#ffffff;fill-opacity:1;fill-rule:nonzero;stroke:none"
           d="m 0,0 c 0.913,-5.111 7.224,-41.19 11.813,-44.682 4.587,-3.492 4.968,-3.772 7.956,-5.231 5.277,-2.58 5.829,-3.951 7.718,-6.855 0,0 -0.608,14.266 -3.064,18.989 -3.567,6.854 -10.545,10.138 -13.361,11.275 -2.812,1.139 -4.989,10.285 -6.838,19.929 -7.056,36.787 -15.527,57.807 -26.887,70.5 0,0 -4.433,4.813 -1.449,-1.303 1.67,-3.424 14.336,-25.024 16.957,-36.314 C -6.638,24.084 -0.912,5.111 0,0" /></g><g
         transform="matrix(1.213563,0,0,1.213563,412.35379,499.04333)"
         id="g242"
         style="fill:#ffffff;fill-opacity:1"><path
           inkscape:connector-curvature="0"
           id="path244"
           style="fill:#ffffff;fill-opacity:1;fill-rule:nonzero;stroke:none"
           d="m 0,0 c -2.55,-1.643 -9.48,-5.181 -11.702,-12.578 -1.532,-5.102 1.219,-20.227 1.219,-20.227 1.315,3.207 1.343,5.031 6.303,8.177 3.387,2.151 5.118,4.271 8.974,8.56 3.857,4.287 5.654,20.252 5.597,25.443 -0.057,5.191 2.048,22.834 1.663,25.084 -0.385,2.251 0.543,16.406 2.33,22.97 1.786,6.565 -0.776,4.222 -0.776,4.222 C 10.924,60.43 8.003,17.971 7.901,11.658 7.801,5.348 2.553,1.645 0,0" /></g><g
         transform="matrix(1.213563,0,0,1.213563,420.32374,478.38424)"
         id="g246"
         style="fill:#ffffff;fill-opacity:1"><path
           inkscape:connector-curvature="0"
           id="path248"
           style="fill:#ffffff;fill-opacity:1;fill-rule:nonzero;stroke:none"
           d="m 0,0 c -1.206,-2.16 -2.535,-4.877 -4.75,-5.984 -2.209,-1.108 -8.147,-3.749 -10.876,-10.464 -1.882,-4.624 -1.775,-19.704 -1.775,-19.704 1.457,2.843 1.727,4.597 6.02,6.703 2.932,1.439 4.658,2.99 8.152,6.564 C 2.296,-17.235 1.979,3.545 0,0" /></g><g
         transform="matrix(1.213563,0,0,1.213563,410.18272,527.26571)"
         id="g250"
         style="fill:#ffffff;fill-opacity:1"><path
           inkscape:connector-curvature="0"
           id="path252"
           style="fill:#ffffff;fill-opacity:1;fill-rule:nonzero;stroke:none"
           d="m 0,0 c -2.536,-1.67 -9.43,-5.274 -11.575,-12.699 -1.48,-5.112 1.428,-20.206 1.428,-20.206 1.281,3.217 1.291,5.042 6.219,8.239 3.365,2.186 5.074,4.32 8.885,8.646 3.813,4.329 2.796,23.129 2.685,28.321 -0.111,5.191 0.492,22.262 0.561,24.544 0.173,5.749 3.841,34.063 5.561,40.646 1.723,6.583 -0.255,4.21 -0.255,4.21 C 10.836,80.455 4.246,51.598 4.567,14.141 4.652,4.322 2.532,1.668 0,0" /></g><g
         transform="matrix(1.213563,0,0,1.213563,407.90013,557.86255)"
         id="g254"
         style="fill:#ffffff;fill-opacity:1"><path
           inkscape:connector-curvature="0"
           id="path256"
           style="fill:#ffffff;fill-opacity:1;fill-rule:nonzero;stroke:none"
           d="m 0,0 c -2.769,-4.679 -8.722,-8.301 -11.059,-15.666 -1.609,-5.074 0.676,-19.64 0.676,-19.64 1.363,3.183 2.547,4.266 7.304,7.712 2.693,1.952 4.027,3.47 6.266,8.784 3.943,9.363 1.936,27.33 0.021,44.095 -0.588,5.158 -3.782,30.855 -5.524,44.793 -1.439,11.502 -2.031,32.458 -0.974,36.118 1.89,6.537 -1.485,0.873 -1.485,0.873 C -11.536,91.794 -1.556,55.5 0.177,18.082 0.639,8.095 1.548,2.611 0,0" /></g><g
         transform="matrix(1.213563,0,0,1.213563,397.2993,584.68423)"
         id="g258"
         style="fill:#ffffff;fill-opacity:1"><path
           inkscape:connector-curvature="0"
           id="path260"
           style="fill:#ffffff;fill-opacity:1;fill-rule:nonzero;stroke:none"
           d="m 0,0 c -4.661,-5.436 -6.901,-12.492 -6.949,-18.6 -0.038,-5.323 3.194,-18.969 3.194,-18.969 0.857,3.357 0.938,4.835 5.109,8.97 2.361,2.342 5.097,6.027 5.858,7.508 2.632,5.13 -3.487,40.807 -4.262,45.942 -0.775,5.132 -3.832,25.675 -4.054,27.947 -1.141,11.535 -6.9,54.19 -7.153,59.967 -0.301,6.798 -1.793,0.769 -1.793,0.769 -3.214,-13.019 4.509,-58.71 9.632,-95.816 C 0.926,7.992 1.976,2.304 0,0" /></g><g
         transform="matrix(1.213563,0,0,1.213563,334.35749,695.70801)"
         id="g262"
         style="fill:#ffffff;fill-opacity:1"><path
           inkscape:connector-curvature="0"
           id="path264"
           style="fill:#ffffff;fill-opacity:1;fill-rule:nonzero;stroke:none"
           d="m 0,0 c 2.588,-4.854 6.248,-14.059 6.84,-15.082 0.594,-1.023 6.936,-17.855 7.681,-19.611 0.748,-1.756 5.329,-19.904 5.854,-21.97 1.262,-4.943 4.549,-21.904 4.973,-24.874 0.423,-2.968 2.586,-14.361 5.364,-18.562 2.776,-4.2 10.02,-6.905 10.02,-6.905 0,0 5.314,9.937 5.956,11.692 -1.854,3.609 -5.084,5.989 -11.161,10.723 -1.189,0.926 -6.562,4.611 -7.502,8.236 -0.94,3.626 -3.145,13.723 -4.428,18.996 -1.28,5.273 -5.191,22.703 -8.059,29.989 C 12.73,-20.231 9.917,-14.255 7.569,-8.439 5.22,-2.622 -0.745,6.841 -1.97,9.07 -3.194,11.3 -8.112,17.541 -9.666,19.511 -11.22,21.482 -11.831,19.488 -10.979,18.476 -10.126,17.459 -2.728,5.118 0,0" /></g><g
         transform="matrix(1.213563,0,0,1.213563,348.40242,733.27932)"
         id="g266"
         style="fill:#ffffff;fill-opacity:1"><path
           inkscape:connector-curvature="0"
           id="path268"
           style="fill:#ffffff;fill-opacity:1;fill-rule:nonzero;stroke:none"
           d="m 0,0 c 1.061,-2.359 8.918,-26.517 9.813,-28.768 0.895,-2.249 8.452,-31.196 8.708,-32.432 0.253,-1.237 5.821,-28.399 6.223,-31.037 0.4,-2.638 -0.065,-7.079 -1.307,-10.774 -1.242,-3.694 -1.522,-9.172 -1.522,-9.172 2.919,-0.256 14.044,-11.588 14.044,-11.588 0,0 1.974,3.131 2.816,4.594 0.844,1.465 0.468,8.601 -0.327,12.447 -0.795,3.847 -4.722,7.994 -5.498,8.98 -0.779,0.985 -3.803,4.991 -4.01,7.382 -0.207,2.392 -9.687,39.489 -10.203,42.676 C 18.221,-44.504 10.762,-22.27 8.57,-15.131 6.38,-7.993 -4.315,16.726 -4.874,18.042 -5.431,19.359 -7.379,18.384 -6.351,16.878 -5.323,15.371 -1.059,2.359 0,0" /></g><g
         transform="matrix(1.213563,0,0,1.213563,520.59681,558.86641)"
         id="g270"
         style="fill:#ffffff;fill-opacity:1"><path
           inkscape:connector-curvature="0"
           id="path272"
           style="fill:#ffffff;fill-opacity:1;fill-rule:nonzero;stroke:none"
           d="m 0,0 c 2.545,4.526 13.185,18.754 13.978,20.896 0.79,2.142 8.667,13.939 13.497,18.731 4.831,4.793 1.437,4.043 1.437,4.043 C 25.978,43.956 2.228,8.638 -1.014,3.222 c -3.241,-5.415 -9.639,-6.001 -12.67,-6.149 -3.03,-0.149 -10.801,0.252 -16.424,-5.046 -3.874,-3.652 -9.049,-18.125 -9.049,-18.125 2.74,2.119 3.677,3.683 9.547,3.932 4.006,0.168 6.564,1.138 12.048,2.925 C -12.079,-17.456 -2.545,-4.526 0,0" /></g><g
         transform="matrix(1.213563,0,0,1.213563,502.48463,534.36226)"
         id="g274"
         style="fill:#ffffff;fill-opacity:1"><path
           inkscape:connector-curvature="0"
           id="path276"
           style="fill:#ffffff;fill-opacity:1;fill-rule:nonzero;stroke:none"
           d="m 0,0 c -2.198,-1.569 -5.312,-3.141 -8.344,-3.287 -3.03,-0.15 -10.8,0.25 -16.425,-5.047 -3.874,-3.652 -9.046,-18.126 -9.046,-18.126 2.739,2.12 3.676,3.685 9.545,3.933 4.008,0.168 6.603,1.029 12.049,2.925 C -8.711,-18.382 3.613,2.578 0,0" /></g><g
         transform="matrix(1.213563,0,0,1.213563,485.12497,506.69679)"
         id="g278"
         style="fill:#ffffff;fill-opacity:1"><path
           inkscape:connector-curvature="0"
           id="path280"
           style="fill:#ffffff;fill-opacity:1;fill-rule:nonzero;stroke:none"
           d="m 0,0 c -1.68,-0.897 -3.623,-2.104 -5.932,-1.898 -2.308,0.205 -8.414,0.971 -12.71,-2.25 -2.962,-2.217 -6.955,-12.06 -6.955,-12.06 2.095,1.237 2.816,2.263 7.282,1.838 3.049,-0.293 5.042,-0.004 9.181,0.854 C -2.587,-12.153 2.759,1.477 0,0" /></g><g
         transform="matrix(1.213563,0,0,1.213563,582.31426,657.01805)"
         id="g282"
         style="fill:#ffffff;fill-opacity:1"><path
           inkscape:connector-curvature="0"
           id="path284"
           style="fill:#ffffff;fill-opacity:1;fill-rule:nonzero;stroke:none"
           d="m 0,0 c -2.937,0.286 -23.286,-21.207 -42.061,-53.62 -4.92,-8.498 -8.095,-9.704 -11.125,-9.853 -3.031,-0.147 -10.801,0.253 -16.424,-5.046 -3.873,-3.651 -9.049,-18.124 -9.049,-18.124 2.74,2.119 3.677,3.685 9.545,3.933 4.01,0.167 6.566,1.137 12.05,2.923 5.483,1.787 14.171,18.492 16.716,23.017 2.543,4.526 11.745,18.918 12.967,20.847 3.072,4.863 20.631,27.376 25.461,32.168 C 2.91,1.038 0,0 0,0" /></g><g
         transform="matrix(1.213563,0,0,1.213563,604.07781,694.53474)"
         id="g286"
         style="fill:#ffffff;fill-opacity:1"><path
           inkscape:connector-curvature="0"
           id="path288"
           style="fill:#ffffff;fill-opacity:1;fill-rule:nonzero;stroke:none"
           d="m 0,0 c -14.904,-8.245 -29.823,-25.304 -48.599,-57.718 -4.921,-8.498 -9.987,-16.418 -13.017,-16.566 -3.032,-0.148 -10.705,-0.95 -16.327,-6.25 -3.873,-3.65 -9.146,-16.921 -9.146,-16.921 2.739,2.12 3.712,3.235 9.546,3.933 3.301,0.395 3.751,0.533 9.234,2.319 5.485,1.787 23.318,33.777 25.863,38.303 2.546,4.525 14.198,20.557 15.42,22.486 6.191,9.797 25.262,26.024 27.966,28.706 C 5.771,3.086 0,0 0,0" /></g><g
         transform="matrix(1.213563,0,0,1.213563,458.60789,523.83012)"
         id="g290"
         style="fill:#ffffff;fill-opacity:1"><path
           inkscape:connector-curvature="0"
           id="path292"
           style="fill:#ffffff;fill-opacity:1;fill-rule:nonzero;stroke:none"
           d="m 0,0 c 3.646,-4.604 3.073,-6.333 3.258,-9.794 0,0 7.578,13.373 7.81,18.691 0.338,7.717 -5.042,13.34 -6.909,15.731 -1.868,2.393 -5.606,7.618 -3.623,13.61 1.983,5.992 13.204,47.048 11.071,49.083 0,0 -1.649,3.057 -2.123,-3.73 C 9.013,76.803 5.227,63.132 4.123,61.134 3.018,59.136 -0.802,41.785 -2.565,36.901 -4.328,32.018 -7.889,16.35 -5.658,11.034 -3.428,5.715 -2.492,3.147 0,0" /></g><g
         transform="matrix(1.213563,0,0,1.213563,449.49076,499.92025)"
         id="g294"
         style="fill:#ffffff;fill-opacity:1"><path
           inkscape:connector-curvature="0"
           id="path296"
           style="fill:#ffffff;fill-opacity:1;fill-rule:nonzero;stroke:none"
           d="m 0,0 c 3.36,-3.4 3.038,-5.145 3.476,-8.311 0,0 5.067,14.204 4.813,19.191 -0.366,7.237 -5.102,11.684 -6.823,13.46 -1.728,1.773 -2.09,4.776 -2.517,7.213 C -1.753,35.552 -8.893,16.038 -5.536,8.883 -3.415,4.359 -2.294,2.322 0,0" /></g><g
         transform="matrix(1.213563,0,0,1.213563,463.70037,561.78648)"
         id="g298"
         style="fill:#ffffff;fill-opacity:1"><path
           inkscape:connector-curvature="0"
           id="path300"
           style="fill:#ffffff;fill-opacity:1;fill-rule:nonzero;stroke:none"
           d="m 0,0 c 2.032,-5.395 2.876,-7.998 5.25,-11.231 3.478,-4.735 2.842,-6.445 2.901,-9.908 0,0 8.059,13.09 8.486,18.395 0.62,7.702 -4.554,13.515 -6.333,15.972 -1.779,2.458 -2.824,5.689 0.731,14.842 13.555,34.921 17.599,64.243 15.541,66.353 0,0 -1.01,2.92 -1.728,-3.846 C 24.127,83.812 17.54,56.031 15.667,50.592 14.923,48.433 9.448,32.253 7.505,27.437 5.565,22.622 -2.037,5.396 0,0" /></g><g
         transform="matrix(1.213563,0,0,1.213563,482.17286,572.71753)"
         id="g302"
         style="fill:#ffffff;fill-opacity:1"><path
           inkscape:connector-curvature="0"
           id="path304"
           style="fill:#ffffff;fill-opacity:1;fill-rule:nonzero;stroke:none"
           d="m 0,0 c 3.229,-4.908 3.954,-6.337 4.104,-9.799 0,0 7.288,12.816 7.579,18.131 0.42,7.715 -3.864,13.21 -4.801,18.565 -0.523,2.991 2.268,7.797 6.234,16.975 14.859,34.385 37.035,64.801 36.118,81.478 0,0 -1.153,6.492 -1.699,-0.29 C 47.229,121.263 39.26,101.871 33.846,91.623 27.285,79.203 15.205,56.298 12.828,51.682 5.106,36.678 -3.128,20.584 -2.753,10.433 -2.54,4.671 -1.828,2.778 0,0" /></g><g
         transform="matrix(1.213563,0,0,1.213563,518.48133,657.17096)"
         id="g306"
         style="fill:#ffffff;fill-opacity:1"><path
           inkscape:connector-curvature="0"
           id="path308"
           style="fill:#ffffff;fill-opacity:1;fill-rule:nonzero;stroke:none"
           d="m 0,0 c -2.663,-4.456 -21.847,-35.153 -21.355,-40.898 0.142,-1.659 1.278,-6.107 2.574,-9.167 2.294,-5.409 1.809,-6.808 1.332,-10.239 0,0 8.161,11.403 10.14,16.345 2.273,5.67 2.873,13.049 0.621,19.847 -0.957,2.88 2.171,7.745 7.101,16.237 18.803,32.397 43.266,71.752 45.224,85.017 0,0 0.906,6.146 -1.949,-0.031 C 41.263,71.86 19.77,34.569 14.343,24.327 13.276,22.309 2.663,4.458 0,0" /></g><g
         transform="matrix(1.213563,0,0,1.213563,623.85986,728.22713)"
         id="g310"
         style="fill:#ffffff;fill-opacity:1"><path
           inkscape:connector-curvature="0"
           id="path312"
           style="fill:#ffffff;fill-opacity:1;fill-rule:nonzero;stroke:none"
           d="m 0,0 c -2.114,-1.35 -8.813,-5.623 -10.703,-7.326 -1.891,-1.702 -10.64,-8.672 -14.772,-13.392 -4.13,-4.72 -8.755,-9.436 -13.757,-15.251 -5.105,-5.935 -14.538,-21.106 -17.484,-25.663 -2.945,-4.558 -8.35,-13.364 -10.431,-16.479 -2.083,-3.114 -8.293,-5.198 -9.798,-5.307 -4.786,-0.351 -12.392,-3.112 -12.324,-7.186 0.031,-1.869 -2.776,-12.469 -2.776,-12.469 0,0 10.536,0.372 14.542,3.424 4.006,3.052 9.799,13.097 11.176,15.761 1.376,2.665 10.068,17.597 12.884,21.85 1.177,1.778 11.479,17.406 12.76,18.819 1.283,1.412 12.813,15.217 13.71,15.988 0.898,0.772 7.381,8.259 11.425,11.99 4.26,3.934 15.307,13.152 16.449,13.831 C 2.038,-0.735 2.116,1.349 0,0" /></g><g
         transform="matrix(1.213563,0,0,1.213563,534.49587,657.74218)"
         id="g314"
         style="fill:#ffffff;fill-opacity:1"><path
           inkscape:connector-curvature="0"
           id="path316"
           style="fill:#ffffff;fill-opacity:1;fill-rule:nonzero;stroke:none"
           d="m 0,0 c -0.983,-2.191 -5.157,-4.979 -6.216,-5.654 -1.057,-0.675 -5.696,-3.783 -7.711,-7.153 -2.017,-3.37 -3.865,-8.64 -3.55,-10.299 0.315,-1.661 0.247,-5.053 0.247,-5.053 0,0 10.145,4.39 12.986,3.673 0,0 5.236,6.837 5.281,10.734 0.042,3.897 1.063,8.245 2.312,10.603 1.248,2.359 15.446,26.175 16.093,27.258 0.649,1.082 17.314,25.928 18.901,27.759 1.585,1.829 16.957,22.054 18.734,23.933 1.778,1.878 10.091,12.761 11.556,13.845 C 70.1,90.73 68.582,92.292 67.62,91.232 66.66,90.173 48.425,70.354 44.005,64.334 39.586,58.315 25.222,39.776 23.686,36.936 22.15,34.095 0.985,2.189 0,0" /></g><g
         transform="matrix(1.213563,0,0,1.213563,235.8527,517.66509)"
         id="g318"
         style="fill:#ffffff;fill-opacity:1"><path
           inkscape:connector-curvature="0"
           id="path320"
           style="fill:#ffffff;fill-opacity:1;fill-rule:nonzero;stroke:none"
           d="m 0,0 c 4.905,-4.714 12.973,-16.382 13.797,-18.511 0.827,-2.128 11.694,-16.182 14.311,-20.668 2.619,-4.483 12.359,-17.257 17.87,-18.955 5.512,-1.697 8.085,-2.626 12.094,-2.73 5.872,-0.151 6.835,-1.701 9.61,-3.779 0,0 -5.409,14.389 -9.34,17.978 -5.707,5.207 -13.471,4.682 -16.504,4.781 -3.032,0.1 -9.44,0.581 -12.769,5.944 C 25.742,-30.577 1.427,4.353 -1.504,4.021 -1.504,4.021 -4.907,4.714 0,0" /></g><g
         transform="matrix(1.213563,0,0,1.213563,303.68068,422.36363)"
         id="g322"
         style="fill:#ffffff;fill-opacity:1"><path
           inkscape:connector-curvature="0"
           id="path324"
           style="fill:#ffffff;fill-opacity:1;fill-rule:nonzero;stroke:none"
           d="m 0,0 c 5.477,-1.809 8.084,-2.627 12.095,-2.73 5.872,-0.154 6.835,-1.702 9.607,-3.777 0,0 -5.406,14.388 -9.338,17.976 -5.708,5.207 -13.471,4.682 -16.505,4.783 -3.032,0.098 -6.17,1.619 -8.394,3.152 C -16.188,21.926 -3.529,1.166 0,0" /></g><g
         transform="matrix(1.213563,0,0,1.213563,317.61894,402.30792)"
         id="g326"
         style="fill:#ffffff;fill-opacity:1"><path
           inkscape:connector-curvature="0"
           id="path328"
           style="fill:#ffffff;fill-opacity:1;fill-rule:nonzero;stroke:none"
           d="m 0,0 c 4.153,-0.792 6.149,-1.049 9.194,-0.706 4.459,0.497 5.198,-0.518 7.309,-1.722 0,0 -4.151,9.779 -7.148,11.947 -4.346,3.152 -10.439,2.287 -12.744,2.046 -2.305,-0.244 -4.267,0.932 -5.963,1.804 C -12.133,14.8 -6.566,1.256 0,0" /></g><g
         transform="matrix(1.213563,0,0,1.213563,256.74164,499.16651)"
         id="g330"
         style="fill:#ffffff;fill-opacity:1"><path
           inkscape:connector-curvature="0"
           id="path332"
           style="fill:#ffffff;fill-opacity:1;fill-rule:nonzero;stroke:none"
           d="m 0,0 c 2.618,-4.484 11.573,-21.045 17.086,-22.742 5.51,-1.697 8.082,-2.626 12.094,-2.729 5.872,-0.154 6.834,-1.703 9.607,-3.779 0,0 -5.408,14.389 -9.339,17.977 -5.706,5.207 -13.469,4.681 -16.503,4.781 -3.031,0.099 -6.226,1.254 -11.284,9.67 -19.294,32.106 -39.987,53.268 -42.918,52.934 0,0 -2.926,0.992 1.98,-3.722 C -34.369,47.676 -16.452,25.449 -13.3,20.636 -12.049,18.727 -2.616,4.484 0,0" /></g><g
         transform="matrix(1.213563,0,0,1.213563,217.6978,568.04871)"
         id="g334"
         style="fill:#ffffff;fill-opacity:1"><path
           inkscape:connector-curvature="0"
           id="path336"
           style="fill:#ffffff;fill-opacity:1;fill-rule:nonzero;stroke:none"
           d="m 0,0 c 1.252,-1.91 13.161,-17.75 15.778,-22.235 2.618,-4.484 20.966,-36.183 26.478,-37.881 5.512,-1.697 5.964,-1.828 9.27,-2.17 5.845,-0.603 6.835,-1.702 9.61,-3.776 0,0 -5.487,13.183 -9.418,16.769 -5.708,5.209 -13.392,5.887 -16.425,5.986 -3.034,0.099 -8.228,7.937 -13.283,16.354 -19.295,32.107 -34.487,48.924 -49.523,56.928 0,0 -5.819,2.991 -0.913,-1.723 C -25.68,25.613 -6.349,9.696 0,0" /></g><g
         transform="matrix(1.213563,0,0,1.213563,326.98133,465.88952)"
         id="g338"
         style="fill:#ffffff;fill-opacity:1"><path
           inkscape:connector-curvature="0"
           id="path340"
           style="fill:#ffffff;fill-opacity:1;fill-rule:nonzero;stroke:none"
           d="m 0,0 c -1.828,-2.42 -7.115,-8.128 -6.655,-15.839 0.318,-5.314 8.109,-18.564 8.109,-18.564 0.131,3.463 -0.472,5.184 3.103,9.846 2.439,3.186 3.335,5.769 5.479,11.122 2.144,5.353 -1.668,20.961 -3.509,25.815 -1.843,4.855 -5.943,22.141 -7.08,24.119 -1.135,1.98 -5.14,15.59 -5.72,22.368 -0.585,6.779 -2.183,3.696 -2.183,3.696 C -10.557,60.493 1.325,19.628 3.404,13.667 5.483,7.706 1.828,2.423 0,0" /></g><g
         transform="matrix(1.213563,0,0,1.213563,342.00986,412.32807)"
         id="g342"
         style="fill:#ffffff;fill-opacity:1"><path
           inkscape:connector-curvature="0"
           id="path344"
           style="fill:#ffffff;fill-opacity:1;fill-rule:nonzero;stroke:none"
           d="M 0,0 C 2.257,2.361 3.344,4.414 5.394,8.972 8.635,16.178 1.182,35.576 0.543,31.564 0.155,29.123 -0.158,26.114 -1.856,24.313 -3.55,22.512 -8.213,17.988 -8.462,10.744 -8.636,5.754 -3.341,-8.365 -3.341,-8.365 -2.953,-5.192 -3.305,-3.455 0,0" /></g><g
         transform="matrix(1.213563,0,0,1.213563,314.04451,489.80654)"
         id="g346"
         style="fill:#ffffff;fill-opacity:1"><path
           inkscape:connector-curvature="0"
           id="path348"
           style="fill:#ffffff;fill-opacity:1;fill-rule:nonzero;stroke:none"
           d="m 0,0 c -1.739,-2.486 -6.817,-8.382 -6.074,-16.071 0.512,-5.298 8.781,-18.256 8.781,-18.256 0.002,3.462 -0.659,5.162 2.74,9.952 2.323,3.271 3.124,5.888 5.072,11.315 1.948,5.429 -5.932,22.529 -7.951,27.31 -2.017,4.785 -7.754,20.875 -8.532,23.021 -1.958,5.409 -8.994,33.079 -9.823,39.832 -0.829,6.753 -1.79,3.818 -1.79,3.818 -2.024,-2.144 2.493,-31.397 16.608,-66.093 C 2.732,5.731 1.739,2.485 0,0" /></g><g
         transform="matrix(1.213563,0,0,1.213563,299.28394,517.08914)"
         id="g350"
         style="fill:#ffffff;fill-opacity:1"><path
           inkscape:connector-curvature="0"
           id="path352"
           style="fill:#ffffff;fill-opacity:1;fill-rule:nonzero;stroke:none"
           d="m 0,0 c -0.851,-5.37 -5.047,-10.933 -4.5,-18.64 0.376,-5.308 7.87,-18.006 7.87,-18.006 0.093,3.465 0.792,4.907 3.945,9.866 1.783,2.806 2.465,4.71 2.583,10.472 0.213,10.157 -8.279,26.118 -16.243,40.995 -2.449,4.577 -14.897,27.283 -21.658,39.596 -5.578,10.16 -13.858,29.421 -14.226,33.213 -0.656,6.772 -1.704,0.263 -1.704,0.263 C -44.582,81.069 -21.918,51.013 -6.508,16.872 -2.393,7.761 0.475,2.998 0,0" /></g><g
         transform="matrix(1.213563,0,0,1.213563,270.14884,558.88121)"
         id="g354"
         style="fill:#ffffff;fill-opacity:1"><path
           inkscape:connector-curvature="0"
           id="path356"
           style="fill:#ffffff;fill-opacity:1;fill-rule:nonzero;stroke:none"
           d="m 0,0 c 5.065,-8.412 8.272,-13.226 7.363,-16.12 -2.142,-6.834 -1.425,-14.201 0.939,-19.836 2.058,-4.908 10.403,-16.179 10.403,-16.179 -0.533,3.423 -1.039,4.816 1.165,10.259 1.248,3.081 2.312,7.548 2.428,9.207 0.399,5.752 -19.277,36.137 -22.012,40.549 -2.733,4.414 -13.634,22.093 -14.733,24.093 -5.591,10.153 -27.682,47.093 -30.191,52.305 -2.953,6.13 -1.949,0 -1.949,0 C -44.415,71.045 -19.321,32.09 0,0" /></g><g
         transform="matrix(1.213563,0,0,1.213563,572.9163,569.41106)"
         id="g358"
         style="fill:#ffffff;fill-opacity:1"><path
           inkscape:connector-curvature="0"
           id="path360"
           style="fill:#ffffff;fill-opacity:1;fill-rule:nonzero;stroke:none"
           d="m 0,0 c -10.126,-4.288 -25.266,-16.164 -25.266,-16.164 -18.303,-12.344 -58.708,-64.969 -58.708,-64.969 -8.232,-9.068 -23.35,-38.393 -32.987,-57.94 l 1.833,7.7 c 0,0 6.068,20.342 8.881,30.865 1.939,7.27 6.301,14.233 8.809,17.846 1.02,1.172 6.851,5.682 10.413,6.424 6.546,1.359 14.83,13.842 12.072,12.365 -1.68,-0.901 -6.519,-3.887 -11.15,-3.109 -4.271,0.716 -8.438,-1.172 -12.736,-4.395 -0.932,-0.697 -1.815,-2.005 -2.595,-3.469 0.923,3.405 1.652,6.815 1.552,8.785 -0.366,7.24 -6.174,11.118 -7.896,12.893 -1.726,1.773 -2.149,6.736 -2.576,9.172 -0.704,3.999 -5.228,-12.114 -1.966,-19.312 3.861,-8.524 4.991,-14.378 4.445,-17.817 -1.6,-11.18 -14.022,-49.904 -14.022,-49.904 l -12.174,-46.56 c -5.591,-16.364 -9.054,-33.445 -11.2,-49.268 l 3.75,46.939 c 0,0 1.02,40.656 3.191,51.739 0.615,3.428 3.607,8.585 10.06,15.359 5.45,5.722 6.482,22.429 4.502,18.882 -1.205,-2.158 -3.238,-6.705 -5.45,-7.81 -2.213,-1.109 -8.973,-2.858 -11.703,-9.574 -0.743,-1.828 -1.176,-5.287 -1.428,-8.804 -0.25,1.639 -0.655,3.164 -1.306,4.128 -2.997,4.457 -6.31,7.611 -10.578,8.342 -4.629,0.79 -8.215,5.203 -9.506,6.606 -2.119,2.302 1.594,-12.211 7.329,-15.649 3.119,-1.873 7.14,-8.049 7.717,-9.492 1.179,-4.24 3.003,-12.25 2.444,-19.754 -0.811,-10.862 -1.776,-32.067 -1.776,-32.067 l -5.179,-50.725 -1.53,-24.069 c -0.408,1.194 -0.808,2.389 -1.237,3.577 l -12.923,46.358 c 0,0 -13.044,38.518 -14.823,49.67 -0.602,3.43 0.434,9.302 4.158,17.887 3.145,7.249 -1.638,23.288 -2.277,19.276 -0.388,-2.442 -0.73,-7.41 -2.429,-9.21 -1.693,-1.803 -7.438,-5.773 -7.687,-13.019 -0.068,-1.97 0.717,-5.37 1.692,-8.758 -0.801,1.451 -1.707,2.745 -2.649,3.427 -4.349,3.151 -8.546,4.972 -12.805,4.188 -4.618,-0.853 -9.503,2.056 -11.198,2.928 -2.781,1.432 5.701,-10.914 12.269,-12.169 3.573,-0.684 9.476,-5.098 10.514,-6.254 2.567,-3.573 7.039,-10.465 9.098,-17.701 2.977,-10.477 9.376,-30.718 9.376,-30.718 l 1.959,-7.673 c -9.951,19.391 -25.543,48.469 -33.919,57.405 0,0 -41.247,51.967 -59.747,64.013 0,0 -15.328,11.63 -25.523,15.755 -10.193,4.123 -20.44,5.551 -26.037,5.066 0,0 28.066,-11.585 36.51,-19.486 8.447,-7.905 20.739,-18.006 27.891,-24.775 8.625,-8.163 23.705,-27.703 28.967,-34.679 5.71,-7.571 22.435,-34.691 28.636,-43.643 6.004,-8.665 18.382,-32.623 21.936,-43.289 3.611,-10.832 12.122,-31.61 15.503,-40.774 0.24,-0.651 0.51,-1.385 0.8,-2.178 -4.174,6.925 -15.107,24.903 -17.336,28.669 -2.555,4.319 -9.213,10.975 -18.497,17.63 -5.294,3.794 -22.979,9.435 -22.979,9.435 0,0 24.627,-14.863 37.112,-36.935 8.495,-15.017 22.792,-35.617 31.268,-47.53 0.887,-3.244 1.496,-5.976 1.633,-7.749 0.361,-4.611 2.746,-18.972 0.398,-32.13 -0.881,-4.93 1.387,-13.215 3.862,-13.725 2.479,-0.509 4.447,0.28 4.616,2.143 0,0 -3.1,8.113 -1.303,18.176 3.75,21 14.905,61.306 18.858,89.628 5.134,36.742 30.663,70.2 30.663,70.2 0,0 -21.037,-17.176 -26.202,-25.185 -9.059,-14.045 -14.542,-26.677 -15.699,-33.927 -0.736,-4.604 -3.702,-21.934 -6.019,-35.524 -1.263,8.679 -1.652,15.665 -1.06,19.016 2.067,11.71 2.609,18.787 3.445,22.042 8.283,12.05 18.154,31.448 26.406,46.601 12.13,22.269 36.514,37.526 36.514,37.526 0,0 -17.592,-5.923 -22.824,-9.803 -9.176,-6.805 -15.725,-13.565 -18.211,-17.925 -2.167,-3.8 -12.811,-21.955 -16.871,-28.945 0.275,0.798 0.534,1.537 0.763,2.191 3.234,9.217 11.41,30.129 14.843,41.016 3.383,10.723 15.374,34.878 21.236,43.639 6.057,9.052 22.344,36.437 27.931,44.098 5.148,7.061 19.914,26.842 28.404,35.141 7.043,6.885 19.17,17.184 27.488,25.221 C -1.922,-6.55 25.952,5.484 25.952,5.484 20.35,5.879 10.125,4.288 0,0" /></g><g
         transform="matrix(1.213563,0,0,1.213563,197.24866,605.27985)"
         id="g362"
         style="fill:#ffffff;fill-opacity:1"><path
           inkscape:connector-curvature="0"
           id="path364"
           style="fill:#ffffff;fill-opacity:1;fill-rule:nonzero;stroke:none"
           d="m 0,0 c 0.909,-0.757 12.661,-14.375 13.965,-15.766 1.306,-1.392 11.855,-16.852 13.062,-18.61 2.885,-4.207 11.816,-18.998 13.235,-21.64 1.419,-2.642 7.373,-12.592 11.427,-15.58 4.055,-2.986 14.595,-3.189 14.595,-3.189 0,0 -2.977,10.555 -2.976,12.424 0.005,4.074 -7.646,6.713 -12.438,6.985 -1.505,0.086 -7.749,2.069 -9.881,5.149 -2.131,3.081 -7.677,11.798 -10.697,16.309 -3.02,4.509 -12.694,19.526 -17.895,25.378 C 7.302,-2.806 2.604,1.835 -1.604,6.487 -5.812,11.14 -14.671,17.968 -16.589,19.64 c -1.917,1.672 -8.684,5.838 -10.819,7.152 -2.138,1.315 -2.028,-0.768 -0.879,-1.424 1.153,-0.661 12.347,-9.699 16.671,-13.564 C -7.515,8.138 -0.91,0.757 0,0" /></g><g
         transform="matrix(1.213563,0,0,1.213563,169.44326,676.1921)"
         id="g366"
         style="fill:#ffffff;fill-opacity:1"><path
           inkscape:connector-curvature="0"
           id="path368"
           style="fill:#ffffff;fill-opacity:1;fill-rule:nonzero;stroke:none"
           d="m 0,0 c 1.481,-1.061 9.968,-11.808 11.776,-13.657 1.808,-1.849 17.504,-21.823 19.118,-23.628 1.615,-1.806 18.679,-26.378 19.346,-27.45 0.663,-1.072 15.244,-24.657 16.53,-26.995 1.287,-2.338 2.377,-6.669 2.483,-10.565 0.106,-3.896 5.453,-10.648 5.453,-10.648 2.827,0.764 13.042,-3.463 13.042,-3.463 0,0 -0.121,3.391 0.167,5.055 0.286,1.664 -1.645,6.905 -3.715,10.242 -2.071,3.337 -6.759,6.371 -7.828,7.028 -1.069,0.658 -5.286,3.378 -6.305,5.552 -1.02,2.174 -22.696,33.735 -24.279,36.55 -1.58,2.816 -16.241,21.121 -20.756,27.068 C 20.516,-18.964 1.964,0.559 0.986,1.604 0.007,2.647 -1.485,1.061 0,0" /></g></g><g
       id="g590"
       transform="matrix(1.213563,0,0,1.213563,603.56229,36.519403)"><path
         d="M 0,0 0.371,0.132 0.863,-1.181 0.493,-1.324 Z"
         style="fill:#000000;fill-opacity:1;fill-rule:evenodd;stroke:none"
         id="path592"
         inkscape:connector-curvature="0" /></g><g
       id="g602"
       transform="matrix(1.213563,0,0,1.213563,603.95281,38.562557)"><path
         d="M 0,0 C 0.596,0.037 1.11,-0.406 1.146,-1.003 1.182,-1.588 0.727,-2.104 0.131,-2.142 -0.464,-2.182 -0.971,-1.731 -1.01,-1.139 -1.05,-0.545 -0.596,-0.033 0,0"
         style="fill:#000000;fill-opacity:1;fill-rule:evenodd;stroke:none"
         id="path604"
         inkscape:connector-curvature="0" /></g></g></svg>